<svg width="48" height="48" viewBox="0 0 48 48" fill="none" xmlns="http://www.w3.org/2000/svg">
<path d="M48 24C48 37.2541 37.2541 48 24 48C10.7459 48 0 37.2541 0 24C0 10.7459 10.7459 0 24 0C37.2569 0 48 10.7459 48 24Z" fill="#2081E2"/>
<path d="M11.8406 24.8064L11.9442 24.6437L18.1875 14.8767C18.2787 14.7337 18.4933 14.7485 18.5623 14.9038C19.6053 17.2414 20.5053 20.1486 20.0837 21.9585C19.9037 22.7031 19.4106 23.7116 18.8557 24.6437C18.7842 24.7793 18.7053 24.9125 18.6215 25.0407C18.582 25.0998 18.5155 25.1344 18.444 25.1344H12.0231C11.8505 25.1344 11.7494 24.947 11.8406 24.8064Z" fill="white"/>
<path d="M39.6693 26.6213V28.1673C39.6693 28.2561 39.6151 28.335 39.5362 28.3695C39.0529 28.5766 37.3984 29.3361 36.7104 30.2928C34.9548 32.7364 33.6134 36.2304 30.615 36.2304H18.1061C13.6727 36.2304 10.08 32.6254 10.08 28.1772V28.0341C10.08 27.9158 10.1762 27.8196 10.2946 27.8196H17.2677C17.4058 27.8196 17.5069 27.9478 17.4946 28.0835C17.4453 28.5372 17.5291 29.0008 17.7436 29.4224C18.1579 30.2632 19.016 30.7884 19.9432 30.7884H23.3952V28.0933H19.9826C19.8075 28.0933 19.704 27.8912 19.8051 27.7481C19.842 27.6914 19.884 27.6322 19.9283 27.5657C20.2514 27.107 20.7124 26.3944 21.1711 25.5832C21.4842 25.0358 21.7875 24.4514 22.0316 23.8645C22.081 23.7585 22.1204 23.65 22.1599 23.544C22.2265 23.3566 22.2955 23.1815 22.3448 23.0065C22.3941 22.8585 22.4336 22.7032 22.473 22.5577C22.5889 22.0596 22.6383 21.5319 22.6383 20.9845C22.6383 20.77 22.6284 20.5456 22.6087 20.331C22.5988 20.0968 22.5692 19.8626 22.5396 19.6283C22.5199 19.4212 22.4829 19.2165 22.4434 19.002C22.3941 18.6889 22.3251 18.3782 22.2461 18.065L22.2191 17.9467C22.1599 17.7322 22.1106 17.5275 22.0415 17.313C21.8467 16.6398 21.6223 15.9839 21.3856 15.3699C21.2993 15.1258 21.2007 14.8916 21.102 14.6573C20.9565 14.3047 20.8086 13.9842 20.673 13.6809C20.604 13.5428 20.5448 13.417 20.4856 13.2888C20.4191 13.1433 20.35 12.9979 20.281 12.8597C20.2316 12.7537 20.1749 12.6551 20.1355 12.5565L19.7138 11.7773C19.6546 11.6713 19.7533 11.5455 19.8691 11.5776L22.5075 12.2926H22.5149C22.5199 12.2926 22.5224 12.2951 22.5248 12.2951L22.8725 12.3913L23.2547 12.4997L23.3952 12.5392V10.971C23.3952 10.214 24.0018 9.60001 24.7514 9.60001C25.1262 9.60001 25.4665 9.75286 25.7106 10.0019C25.9547 10.251 26.1076 10.5913 26.1076 10.971V13.2987L26.3887 13.3776C26.4109 13.385 26.4331 13.3948 26.4528 13.4096C26.5218 13.4614 26.6204 13.5379 26.7462 13.6315C26.8449 13.7105 26.9509 13.8066 27.0791 13.9052C27.3331 14.1099 27.6363 14.3738 27.9692 14.677C28.058 14.7535 28.1443 14.8324 28.2232 14.9113C28.6523 15.3107 29.1331 15.7793 29.5917 16.2971C29.72 16.4425 29.8457 16.5905 29.9739 16.7458C30.1021 16.9036 30.2378 17.059 30.3561 17.2144C30.5115 17.4214 30.6791 17.636 30.8246 17.8604C30.8937 17.9664 30.9725 18.0749 31.0392 18.1809C31.2265 18.4645 31.3917 18.7579 31.5496 19.0513C31.6161 19.1869 31.6852 19.3349 31.7443 19.4804C31.9194 19.8724 32.0575 20.2719 32.1463 20.6714C32.1734 20.7577 32.1931 20.8514 32.203 20.9352V20.9549C32.2325 21.0733 32.2424 21.199 32.2523 21.3273C32.2917 21.7365 32.272 22.1459 32.1833 22.5577C32.1463 22.7328 32.097 22.8979 32.0378 23.073C31.9786 23.2407 31.9194 23.4157 31.843 23.581C31.6951 23.9237 31.52 24.2665 31.3128 24.587C31.2463 24.7053 31.1674 24.8311 31.0884 24.9494C31.0021 25.0752 30.9134 25.1936 30.8345 25.3095C30.726 25.4574 30.6101 25.6128 30.4917 25.7508C30.3857 25.8963 30.2772 26.0418 30.1588 26.17C29.9937 26.3648 29.8359 26.5498 29.6706 26.7273C29.572 26.8432 29.466 26.9616 29.3575 27.0676C29.2514 27.1859 29.1429 27.292 29.0443 27.3906C28.8791 27.5558 28.741 27.684 28.6251 27.79L28.3539 28.0391C28.3145 28.0736 28.2627 28.0933 28.2084 28.0933H26.1076V30.7884H28.7509C29.3427 30.7884 29.9049 30.5788 30.3586 30.1942C30.5139 30.0586 31.192 29.4717 31.9934 28.5865C32.0205 28.5569 32.0551 28.5347 32.0945 28.5249L39.3956 26.4141C39.5313 26.3747 39.6693 26.4782 39.6693 26.6213Z" fill="white"/>
</svg>
