<svg width="80" height="80" viewBox="0 0 80 80" fill="none" xmlns="http://www.w3.org/2000/svg">
<g filter="url(#filter0_d_80_224)">
<mask id="path-1-outside-1_80_224" maskUnits="userSpaceOnUse" x="16.0001" y="20.3984" width="48" height="39" fill="black">
<rect fill="white" x="16.0001" y="20.3984" width="48" height="39"/>
<path fill-rule="evenodd" clip-rule="evenodd" d="M45.589 24.4625C45.6158 24.4149 45.6678 24.3911 45.7198 24.4006C48.5783 24.8942 51.3122 25.7561 53.8617 26.9259C53.8838 26.9354 53.9027 26.9513 53.9137 26.9735C58.4308 33.6177 60.6618 41.1125 59.8278 49.7408C59.8246 49.7773 59.8057 49.8106 59.7757 49.8328C56.3544 52.3454 53.0402 53.8707 49.7718 54.8818C49.7198 54.8977 49.6631 54.8786 49.6315 54.8342C49.2388 54.2878 48.8649 53.726 48.5119 53.149C48.5109 53.1473 48.5099 53.1456 48.5088 53.1439C48.3507 52.8853 48.1968 52.6236 48.0473 52.3589C48.0441 52.3532 48.0409 52.3475 48.0377 52.3418C47.9949 52.2659 47.9524 52.1896 47.9103 52.1132C47.8009 51.9145 47.6941 51.7141 47.5898 51.5121C47.5551 51.4439 47.5866 51.3613 47.6575 51.3343C48.1135 51.1623 48.5601 50.976 48.9984 50.7749C48.9998 50.7743 49.0012 50.7736 49.0026 50.773C49.0414 50.7551 49.0802 50.7372 49.1189 50.7191C49.1435 50.7076 49.1681 50.6961 49.1926 50.6846C49.2518 50.6566 49.3108 50.6285 49.3697 50.6C49.737 50.4224 50.0985 50.234 50.4548 50.0344C50.4601 50.0315 50.4653 50.0286 50.4705 50.0256C50.4876 50.016 50.5048 50.0064 50.5219 49.9967C50.522 49.9966 50.5221 49.9966 50.5223 49.9965C50.6082 49.9479 50.6939 49.8986 50.7793 49.8487C50.8582 49.8027 50.8629 49.69 50.7904 49.636C50.7089 49.5754 50.6277 49.5136 50.5472 49.4511C50.547 49.451 50.5469 49.4509 50.5468 49.4508C50.4185 49.3513 50.2921 49.25 50.1691 49.1487C50.1313 49.1186 50.0809 49.1122 50.0383 49.1328C49.6424 49.3157 49.2442 49.4874 48.844 49.6479C48.3127 49.861 47.7779 50.0543 47.24 50.2279C47.239 50.2283 47.238 50.2286 47.237 50.2289C46.7364 50.3904 46.2333 50.5349 45.7281 50.6622C41.9475 51.6152 38.05 51.6118 34.2455 50.6521C33.7431 50.5254 33.2423 50.382 32.7436 50.2219C32.7432 50.2218 32.7429 50.2217 32.7425 50.2216C32.2037 50.0486 31.6673 49.8561 31.134 49.6442C30.7328 49.4847 30.3333 49.3143 29.9359 49.1328C29.8933 49.1138 29.8428 49.1201 29.8066 49.1503C29.685 49.2505 29.5599 49.3502 29.4335 49.4482C29.4309 49.4501 29.4284 49.4521 29.4259 49.4541C29.3466 49.5155 29.2667 49.5762 29.1869 49.636C29.1144 49.69 29.1207 49.8027 29.1996 49.8487C29.2832 49.8967 29.3671 49.9441 29.4513 49.9911C29.4523 49.9917 29.4533 49.9923 29.4543 49.9928C29.478 50.006 29.5016 50.0191 29.5253 50.0322C29.5275 50.0335 29.5298 50.0347 29.5321 50.036C29.9676 50.2769 30.4108 50.5045 30.8627 50.717C30.9011 50.7351 30.9396 50.753 30.9782 50.7709C30.9795 50.7715 30.9807 50.7721 30.982 50.7727C31.4195 50.9751 31.8651 51.1634 32.3198 51.3359C32.3907 51.3629 32.4238 51.4439 32.3891 51.5121C32.288 51.7125 32.1839 51.9113 32.077 52.1084C32.0241 52.2058 31.9706 52.3029 31.9163 52.3996C31.9151 52.4018 31.9138 52.404 31.9126 52.4062C31.7719 52.6566 31.6266 52.9043 31.477 53.1492C31.476 53.1507 31.4751 53.1522 31.4742 53.1537C31.1219 53.7298 30.7451 54.2905 30.3458 54.8358C30.3127 54.8786 30.2575 54.8977 30.2055 54.8818C26.9529 53.8707 23.6387 52.3454 20.2173 49.8328C20.189 49.8106 20.1685 49.7757 20.1653 49.7392C19.4684 42.276 20.889 34.7192 26.0747 26.9719C26.0872 26.9513 26.1062 26.9354 26.1282 26.9259C28.6793 25.7545 31.4132 24.8927 34.2701 24.4006C34.3222 24.3927 34.3742 24.4165 34.401 24.4625C34.7542 25.0879 35.1578 25.8894 35.4305 26.5449C38.442 26.0847 41.5007 26.0847 44.5752 26.5449C44.8479 25.9037 45.2374 25.0879 45.589 24.4625ZM43.3747 24.377C43.5294 24.0658 43.6895 23.7599 43.8456 23.4823L43.8463 23.4811C44.2897 22.6938 45.1788 22.275 46.0648 22.4306C49.0944 22.9542 51.9914 23.8676 54.6926 25.1066C55.0135 25.253 55.3524 25.5061 55.5976 25.8931C60.3363 32.8819 62.6984 40.8225 61.8188 49.9297C61.7607 50.5459 61.4399 51.0891 60.966 51.44L60.9596 51.4448C57.3413 54.102 53.8225 55.7223 50.3629 56.7925L50.3557 56.7947C49.4904 57.0588 48.5413 56.7474 48.0054 55.9986C47.249 54.9459 46.5549 53.836 45.9383 52.6702C42.0186 53.612 37.9854 53.6087 34.0468 52.6629C33.436 53.8395 32.7354 54.9577 31.9594 56.0174L31.9442 56.0382L31.9284 56.0586C31.4128 56.726 30.5089 57.0654 29.6217 56.7947L29.6118 56.7917C26.1695 55.7216 22.6515 54.1018 19.0335 51.4448L19.0091 51.4269L18.9852 51.4082C18.5618 51.077 18.2316 50.5551 18.1737 49.9221C17.4381 42.0387 18.9528 34.0229 24.4032 25.8735C24.6341 25.5206 24.9537 25.2622 25.3017 25.1047C28.0047 23.8643 30.902 22.9512 33.9306 22.4296L33.9496 22.4264L33.9686 22.4235C34.8075 22.2955 35.6765 22.679 36.1291 23.4557L36.1358 23.4673L36.1424 23.479C36.2971 23.7528 36.4613 24.0587 36.6227 24.3753C38.858 24.1404 41.113 24.1414 43.3747 24.377ZM34.9615 41.1491L34.9617 41.1348C34.9802 39.8421 34.077 39.1318 33.3667 39.1318C32.6855 39.1318 31.7719 39.816 31.7719 41.1634C31.7719 42.4987 32.7063 43.1949 33.3667 43.1949C34.0479 43.1949 34.9615 42.5107 34.9615 41.1634V41.1491ZM48.2527 41.1491L48.2529 41.1348C48.2714 39.8421 47.3683 39.1318 46.6579 39.1318C45.9767 39.1318 45.0632 39.816 45.0632 41.1634C45.0632 42.4987 45.9976 43.1949 46.6579 43.1949C47.3496 43.1949 48.2527 42.5167 48.2527 41.1634V41.1491ZM36.9615 41.1634C36.993 38.9571 35.3848 37.1318 33.3667 37.1318C31.3644 37.1318 29.7719 38.9412 29.7719 41.1634C29.7719 43.3855 31.3958 45.1949 33.3667 45.1949C35.369 45.1949 36.9615 43.3855 36.9615 41.1634ZM50.2527 41.1634C50.2842 38.9571 48.6761 37.1318 46.6579 37.1318C44.6556 37.1318 43.0632 38.9412 43.0632 41.1634C43.0632 43.3855 44.6871 45.1949 46.6579 45.1949C48.6761 45.1949 50.2527 43.3855 50.2527 41.1634Z"/>
</mask>
<path fill-rule="evenodd" clip-rule="evenodd" d="M45.589 24.4625C45.6158 24.4149 45.6678 24.3911 45.7198 24.4006C48.5783 24.8942 51.3122 25.7561 53.8617 26.9259C53.8838 26.9354 53.9027 26.9513 53.9137 26.9735C58.4308 33.6177 60.6618 41.1125 59.8278 49.7408C59.8246 49.7773 59.8057 49.8106 59.7757 49.8328C56.3544 52.3454 53.0402 53.8707 49.7718 54.8818C49.7198 54.8977 49.6631 54.8786 49.6315 54.8342C49.2388 54.2878 48.8649 53.726 48.5119 53.149C48.5109 53.1473 48.5099 53.1456 48.5088 53.1439C48.3507 52.8853 48.1968 52.6236 48.0473 52.3589C48.0441 52.3532 48.0409 52.3475 48.0377 52.3418C47.9949 52.2659 47.9524 52.1896 47.9103 52.1132C47.8009 51.9145 47.6941 51.7141 47.5898 51.5121C47.5551 51.4439 47.5866 51.3613 47.6575 51.3343C48.1135 51.1623 48.5601 50.976 48.9984 50.7749C48.9998 50.7743 49.0012 50.7736 49.0026 50.773C49.0414 50.7551 49.0802 50.7372 49.1189 50.7191C49.1435 50.7076 49.1681 50.6961 49.1926 50.6846C49.2518 50.6566 49.3108 50.6285 49.3697 50.6C49.737 50.4224 50.0985 50.234 50.4548 50.0344C50.4601 50.0315 50.4653 50.0286 50.4705 50.0256C50.4876 50.016 50.5048 50.0064 50.5219 49.9967C50.522 49.9966 50.5221 49.9966 50.5223 49.9965C50.6082 49.9479 50.6939 49.8986 50.7793 49.8487C50.8582 49.8027 50.8629 49.69 50.7904 49.636C50.7089 49.5754 50.6277 49.5136 50.5472 49.4511C50.547 49.451 50.5469 49.4509 50.5468 49.4508C50.4185 49.3513 50.2921 49.25 50.1691 49.1487C50.1313 49.1186 50.0809 49.1122 50.0383 49.1328C49.6424 49.3157 49.2442 49.4874 48.844 49.6479C48.3127 49.861 47.7779 50.0543 47.24 50.2279C47.239 50.2283 47.238 50.2286 47.237 50.2289C46.7364 50.3904 46.2333 50.5349 45.7281 50.6622C41.9475 51.6152 38.05 51.6118 34.2455 50.6521C33.7431 50.5254 33.2423 50.382 32.7436 50.2219C32.7432 50.2218 32.7429 50.2217 32.7425 50.2216C32.2037 50.0486 31.6673 49.8561 31.134 49.6442C30.7328 49.4847 30.3333 49.3143 29.9359 49.1328C29.8933 49.1138 29.8428 49.1201 29.8066 49.1503C29.685 49.2505 29.5599 49.3502 29.4335 49.4482C29.4309 49.4501 29.4284 49.4521 29.4259 49.4541C29.3466 49.5155 29.2667 49.5762 29.1869 49.636C29.1144 49.69 29.1207 49.8027 29.1996 49.8487C29.2832 49.8967 29.3671 49.9441 29.4513 49.9911C29.4523 49.9917 29.4533 49.9923 29.4543 49.9928C29.478 50.006 29.5016 50.0191 29.5253 50.0322C29.5275 50.0335 29.5298 50.0347 29.5321 50.036C29.9676 50.2769 30.4108 50.5045 30.8627 50.717C30.9011 50.7351 30.9396 50.753 30.9782 50.7709C30.9795 50.7715 30.9807 50.7721 30.982 50.7727C31.4195 50.9751 31.8651 51.1634 32.3198 51.3359C32.3907 51.3629 32.4238 51.4439 32.3891 51.5121C32.288 51.7125 32.1839 51.9113 32.077 52.1084C32.0241 52.2058 31.9706 52.3029 31.9163 52.3996C31.9151 52.4018 31.9138 52.404 31.9126 52.4062C31.7719 52.6566 31.6266 52.9043 31.477 53.1492C31.476 53.1507 31.4751 53.1522 31.4742 53.1537C31.1219 53.7298 30.7451 54.2905 30.3458 54.8358C30.3127 54.8786 30.2575 54.8977 30.2055 54.8818C26.9529 53.8707 23.6387 52.3454 20.2173 49.8328C20.189 49.8106 20.1685 49.7757 20.1653 49.7392C19.4684 42.276 20.889 34.7192 26.0747 26.9719C26.0872 26.9513 26.1062 26.9354 26.1282 26.9259C28.6793 25.7545 31.4132 24.8927 34.2701 24.4006C34.3222 24.3927 34.3742 24.4165 34.401 24.4625C34.7542 25.0879 35.1578 25.8894 35.4305 26.5449C38.442 26.0847 41.5007 26.0847 44.5752 26.5449C44.8479 25.9037 45.2374 25.0879 45.589 24.4625ZM43.3747 24.377C43.5294 24.0658 43.6895 23.7599 43.8456 23.4823L43.8463 23.4811C44.2897 22.6938 45.1788 22.275 46.0648 22.4306C49.0944 22.9542 51.9914 23.8676 54.6926 25.1066C55.0135 25.253 55.3524 25.5061 55.5976 25.8931C60.3363 32.8819 62.6984 40.8225 61.8188 49.9297C61.7607 50.5459 61.4399 51.0891 60.966 51.44L60.9596 51.4448C57.3413 54.102 53.8225 55.7223 50.3629 56.7925L50.3557 56.7947C49.4904 57.0588 48.5413 56.7474 48.0054 55.9986C47.249 54.9459 46.5549 53.836 45.9383 52.6702C42.0186 53.612 37.9854 53.6087 34.0468 52.6629C33.436 53.8395 32.7354 54.9577 31.9594 56.0174L31.9442 56.0382L31.9284 56.0586C31.4128 56.726 30.5089 57.0654 29.6217 56.7947L29.6118 56.7917C26.1695 55.7216 22.6515 54.1018 19.0335 51.4448L19.0091 51.4269L18.9852 51.4082C18.5618 51.077 18.2316 50.5551 18.1737 49.9221C17.4381 42.0387 18.9528 34.0229 24.4032 25.8735C24.6341 25.5206 24.9537 25.2622 25.3017 25.1047C28.0047 23.8643 30.902 22.9512 33.9306 22.4296L33.9496 22.4264L33.9686 22.4235C34.8075 22.2955 35.6765 22.679 36.1291 23.4557L36.1358 23.4673L36.1424 23.479C36.2971 23.7528 36.4613 24.0587 36.6227 24.3753C38.858 24.1404 41.113 24.1414 43.3747 24.377ZM34.9615 41.1491L34.9617 41.1348C34.9802 39.8421 34.077 39.1318 33.3667 39.1318C32.6855 39.1318 31.7719 39.816 31.7719 41.1634C31.7719 42.4987 32.7063 43.1949 33.3667 43.1949C34.0479 43.1949 34.9615 42.5107 34.9615 41.1634V41.1491ZM48.2527 41.1491L48.2529 41.1348C48.2714 39.8421 47.3683 39.1318 46.6579 39.1318C45.9767 39.1318 45.0632 39.816 45.0632 41.1634C45.0632 42.4987 45.9976 43.1949 46.6579 43.1949C47.3496 43.1949 48.2527 42.5167 48.2527 41.1634V41.1491ZM36.9615 41.1634C36.993 38.9571 35.3848 37.1318 33.3667 37.1318C31.3644 37.1318 29.7719 38.9412 29.7719 41.1634C29.7719 43.3855 31.3958 45.1949 33.3667 45.1949C35.369 45.1949 36.9615 43.3855 36.9615 41.1634ZM50.2527 41.1634C50.2842 38.9571 48.6761 37.1318 46.6579 37.1318C44.6556 37.1318 43.0632 38.9412 43.0632 41.1634C43.0632 43.3855 44.6871 45.1949 46.6579 45.1949C48.6761 45.1949 50.2527 43.3855 50.2527 41.1634Z" fill="white"/>
<path fill-rule="evenodd" clip-rule="evenodd" d="M45.589 24.4625C45.6158 24.4149 45.6678 24.3911 45.7198 24.4006C48.5783 24.8942 51.3122 25.7561 53.8617 26.9259C53.8838 26.9354 53.9027 26.9513 53.9137 26.9735C58.4308 33.6177 60.6618 41.1125 59.8278 49.7408C59.8246 49.7773 59.8057 49.8106 59.7757 49.8328C56.3544 52.3454 53.0402 53.8707 49.7718 54.8818C49.7198 54.8977 49.6631 54.8786 49.6315 54.8342C49.2388 54.2878 48.8649 53.726 48.5119 53.149C48.5109 53.1473 48.5099 53.1456 48.5088 53.1439C48.3507 52.8853 48.1968 52.6236 48.0473 52.3589C48.0441 52.3532 48.0409 52.3475 48.0377 52.3418C47.9949 52.2659 47.9524 52.1896 47.9103 52.1132C47.8009 51.9145 47.6941 51.7141 47.5898 51.5121C47.5551 51.4439 47.5866 51.3613 47.6575 51.3343C48.1135 51.1623 48.5601 50.976 48.9984 50.7749C48.9998 50.7743 49.0012 50.7736 49.0026 50.773C49.0414 50.7551 49.0802 50.7372 49.1189 50.7191C49.1435 50.7076 49.1681 50.6961 49.1926 50.6846C49.2518 50.6566 49.3108 50.6285 49.3697 50.6C49.737 50.4224 50.0985 50.234 50.4548 50.0344C50.4601 50.0315 50.4653 50.0286 50.4705 50.0256C50.4876 50.016 50.5048 50.0064 50.5219 49.9967C50.522 49.9966 50.5221 49.9966 50.5223 49.9965C50.6082 49.9479 50.6939 49.8986 50.7793 49.8487C50.8582 49.8027 50.8629 49.69 50.7904 49.636C50.7089 49.5754 50.6277 49.5136 50.5472 49.4511C50.547 49.451 50.5469 49.4509 50.5468 49.4508C50.4185 49.3513 50.2921 49.25 50.1691 49.1487C50.1313 49.1186 50.0809 49.1122 50.0383 49.1328C49.6424 49.3157 49.2442 49.4874 48.844 49.6479C48.3127 49.861 47.7779 50.0543 47.24 50.2279C47.239 50.2283 47.238 50.2286 47.237 50.2289C46.7364 50.3904 46.2333 50.5349 45.7281 50.6622C41.9475 51.6152 38.05 51.6118 34.2455 50.6521C33.7431 50.5254 33.2423 50.382 32.7436 50.2219C32.7432 50.2218 32.7429 50.2217 32.7425 50.2216C32.2037 50.0486 31.6673 49.8561 31.134 49.6442C30.7328 49.4847 30.3333 49.3143 29.9359 49.1328C29.8933 49.1138 29.8428 49.1201 29.8066 49.1503C29.685 49.2505 29.5599 49.3502 29.4335 49.4482C29.4309 49.4501 29.4284 49.4521 29.4259 49.4541C29.3466 49.5155 29.2667 49.5762 29.1869 49.636C29.1144 49.69 29.1207 49.8027 29.1996 49.8487C29.2832 49.8967 29.3671 49.9441 29.4513 49.9911C29.4523 49.9917 29.4533 49.9923 29.4543 49.9928C29.478 50.006 29.5016 50.0191 29.5253 50.0322C29.5275 50.0335 29.5298 50.0347 29.5321 50.036C29.9676 50.2769 30.4108 50.5045 30.8627 50.717C30.9011 50.7351 30.9396 50.753 30.9782 50.7709C30.9795 50.7715 30.9807 50.7721 30.982 50.7727C31.4195 50.9751 31.8651 51.1634 32.3198 51.3359C32.3907 51.3629 32.4238 51.4439 32.3891 51.5121C32.288 51.7125 32.1839 51.9113 32.077 52.1084C32.0241 52.2058 31.9706 52.3029 31.9163 52.3996C31.9151 52.4018 31.9138 52.404 31.9126 52.4062C31.7719 52.6566 31.6266 52.9043 31.477 53.1492C31.476 53.1507 31.4751 53.1522 31.4742 53.1537C31.1219 53.7298 30.7451 54.2905 30.3458 54.8358C30.3127 54.8786 30.2575 54.8977 30.2055 54.8818C26.9529 53.8707 23.6387 52.3454 20.2173 49.8328C20.189 49.8106 20.1685 49.7757 20.1653 49.7392C19.4684 42.276 20.889 34.7192 26.0747 26.9719C26.0872 26.9513 26.1062 26.9354 26.1282 26.9259C28.6793 25.7545 31.4132 24.8927 34.2701 24.4006C34.3222 24.3927 34.3742 24.4165 34.401 24.4625C34.7542 25.0879 35.1578 25.8894 35.4305 26.5449C38.442 26.0847 41.5007 26.0847 44.5752 26.5449C44.8479 25.9037 45.2374 25.0879 45.589 24.4625ZM43.3747 24.377C43.5294 24.0658 43.6895 23.7599 43.8456 23.4823L43.8463 23.4811C44.2897 22.6938 45.1788 22.275 46.0648 22.4306C49.0944 22.9542 51.9914 23.8676 54.6926 25.1066C55.0135 25.253 55.3524 25.5061 55.5976 25.8931C60.3363 32.8819 62.6984 40.8225 61.8188 49.9297C61.7607 50.5459 61.4399 51.0891 60.966 51.44L60.9596 51.4448C57.3413 54.102 53.8225 55.7223 50.3629 56.7925L50.3557 56.7947C49.4904 57.0588 48.5413 56.7474 48.0054 55.9986C47.249 54.9459 46.5549 53.836 45.9383 52.6702C42.0186 53.612 37.9854 53.6087 34.0468 52.6629C33.436 53.8395 32.7354 54.9577 31.9594 56.0174L31.9442 56.0382L31.9284 56.0586C31.4128 56.726 30.5089 57.0654 29.6217 56.7947L29.6118 56.7917C26.1695 55.7216 22.6515 54.1018 19.0335 51.4448L19.0091 51.4269L18.9852 51.4082C18.5618 51.077 18.2316 50.5551 18.1737 49.9221C17.4381 42.0387 18.9528 34.0229 24.4032 25.8735C24.6341 25.5206 24.9537 25.2622 25.3017 25.1047C28.0047 23.8643 30.902 22.9512 33.9306 22.4296L33.9496 22.4264L33.9686 22.4235C34.8075 22.2955 35.6765 22.679 36.1291 23.4557L36.1358 23.4673L36.1424 23.479C36.2971 23.7528 36.4613 24.0587 36.6227 24.3753C38.858 24.1404 41.113 24.1414 43.3747 24.377ZM34.9615 41.1491L34.9617 41.1348C34.9802 39.8421 34.077 39.1318 33.3667 39.1318C32.6855 39.1318 31.7719 39.816 31.7719 41.1634C31.7719 42.4987 32.7063 43.1949 33.3667 43.1949C34.0479 43.1949 34.9615 42.5107 34.9615 41.1634V41.1491ZM48.2527 41.1491L48.2529 41.1348C48.2714 39.8421 47.3683 39.1318 46.6579 39.1318C45.9767 39.1318 45.0632 39.816 45.0632 41.1634C45.0632 42.4987 45.9976 43.1949 46.6579 43.1949C47.3496 43.1949 48.2527 42.5167 48.2527 41.1634V41.1491ZM36.9615 41.1634C36.993 38.9571 35.3848 37.1318 33.3667 37.1318C31.3644 37.1318 29.7719 38.9412 29.7719 41.1634C29.7719 43.3855 31.3958 45.1949 33.3667 45.1949C35.369 45.1949 36.9615 43.3855 36.9615 41.1634ZM50.2527 41.1634C50.2842 38.9571 48.6761 37.1318 46.6579 37.1318C44.6556 37.1318 43.0632 38.9412 43.0632 41.1634C43.0632 43.3855 44.6871 45.1949 46.6579 45.1949C48.6761 45.1949 50.2527 43.3855 50.2527 41.1634Z" stroke="#5865F2" stroke-width="4" stroke-linejoin="round" mask="url(#path-1-outside-1_80_224)"/>
</g>
<defs>
<filter id="filter0_d_80_224" x="2.00024" y="12.3984" width="75.9999" height="66.4907" filterUnits="userSpaceOnUse" color-interpolation-filters="sRGB">
<feFlood flood-opacity="0" result="BackgroundImageFix"/>
<feColorMatrix in="SourceAlpha" type="matrix" values="0 0 0 0 0 0 0 0 0 0 0 0 0 0 0 0 0 0 127 0" result="hardAlpha"/>
<feOffset dy="6"/>
<feGaussianBlur stdDeviation="7"/>
<feComposite in2="hardAlpha" operator="out"/>
<feColorMatrix type="matrix" values="0 0 0 0 0.345098 0 0 0 0 0.396078 0 0 0 0 0.94902 0 0 0 1 0"/>
<feBlend mode="normal" in2="BackgroundImageFix" result="effect1_dropShadow_80_224"/>
<feBlend mode="normal" in="SourceGraphic" in2="effect1_dropShadow_80_224" result="shape"/>
</filter>
</defs>
</svg>
