<svg width="80" height="80" viewBox="0 0 80 80" fill="none" xmlns="http://www.w3.org/2000/svg">
<g clip-path="url(#clip0_805_899)">
<g filter="url(#filter0_d_805_899)">
<path fill-rule="evenodd" clip-rule="evenodd" d="M18.9737 31.2623C19.9454 29.5792 22.3747 29.5792 23.3464 31.2623L31.9782 46.2129C32.9499 47.896 31.7352 49.9998 29.7918 49.9998H12.5283C10.5849 49.9998 9.37029 47.896 10.342 46.2129L18.9737 31.2623ZM22.0687 33.0491L21.6144 32.2623C21.4125 31.9125 20.9077 31.9125 20.7058 32.2623L12.074 47.2129C11.8721 47.5626 12.1245 47.9998 12.5283 47.9998H29.7918C30.1957 47.9998 30.448 47.5626 30.2461 47.2129L22.0687 33.0491ZM50.2305 40.0251C50.217 45.5364 45.7451 50 40.2307 50C34.7079 50 30.2308 45.5229 30.2308 40.0001C30.2308 34.4773 34.7079 30.0002 40.2307 30.0002C45.7451 30.0002 50.217 34.4639 50.2305 39.9752V33C50.2305 31.3431 51.5737 30 53.2305 30H67.2303C68.8871 30 70.2303 31.3431 70.2303 33V46.9998C70.2303 48.6566 68.8871 49.9998 67.2303 49.9998H53.2305C51.5737 49.9998 50.2305 48.6566 50.2305 46.9998V40.0251ZM40.2307 48C44.6489 48 48.2306 44.4183 48.2306 40.0001C48.2306 35.5819 44.6489 32.0002 40.2307 32.0002C35.8124 32.0002 32.2308 35.5819 32.2308 40.0001C32.2308 44.4183 35.8124 48 40.2307 48ZM52.2305 33C52.2305 32.4477 52.6782 32 53.2305 32H67.2303C67.7826 32 68.2303 32.4477 68.2303 33V46.9998C68.2303 47.5521 67.7826 47.9998 67.2303 47.9998H53.2305C52.6782 47.9998 52.2305 47.5521 52.2305 46.9998V33Z" fill="black"/>
<path d="M24.2124 30.7623L23.3464 31.2623L24.2124 30.7623C22.8558 28.4126 19.4643 28.4126 18.1077 30.7623L9.47597 45.7129C8.11936 48.0626 9.81512 50.9998 12.5283 50.9998H29.7918C31.4769 50.9998 32.7695 49.8669 33.1822 48.4454C35.091 50.0402 37.5488 51 40.2307 51C43.9509 51 47.2398 49.1532 49.2305 46.3263V46.9998C49.2305 49.2089 51.0214 50.9998 53.2305 50.9998H67.2303C69.4394 50.9998 71.2303 49.2089 71.2303 46.9998V33C71.2303 30.7908 69.4394 29 67.2303 29H53.2305C51.0214 29 49.2305 30.7908 49.2305 33V33.674C47.2398 30.8471 43.9509 29.0002 40.2307 29.0002C34.3314 29.0002 29.5168 33.6441 29.2431 39.4756L24.2124 30.7623ZM13.3518 46.9998L21.1601 33.4754L21.2027 33.5491L28.9684 46.9998H13.3518ZM21.5715 32.7628L21.5718 32.7623L21.1601 32.5246L21.5718 32.7623C21.5717 32.7624 21.5716 32.7626 21.5715 32.7628ZM47.2306 40.0001C47.2306 43.8661 44.0966 47 40.2307 47C36.3647 47 33.2308 43.8661 33.2308 40.0001C33.2308 36.1342 36.3647 33.0002 40.2307 33.0002C44.0966 33.0002 47.2306 36.1342 47.2306 40.0001ZM53.2305 33L67.2303 33L67.2303 46.9998L53.2305 46.9998L53.2305 33Z" stroke="white" stroke-width="2"/>
</g>
</g>
<defs>
<filter id="filter0_d_805_899" x="-2.00293" y="22" width="84.2332" height="44" filterUnits="userSpaceOnUse" color-interpolation-filters="sRGB">
<feFlood flood-opacity="0" result="BackgroundImageFix"/>
<feColorMatrix in="SourceAlpha" type="matrix" values="0 0 0 0 0 0 0 0 0 0 0 0 0 0 0 0 0 0 127 0" result="hardAlpha"/>
<feOffset dy="4"/>
<feGaussianBlur stdDeviation="5"/>
<feComposite in2="hardAlpha" operator="out"/>
<feColorMatrix type="matrix" values="0 0 0 0 1 0 0 0 0 1 0 0 0 0 1 0 0 0 0.7 0"/>
<feBlend mode="normal" in2="BackgroundImageFix" result="effect1_dropShadow_805_899"/>
<feBlend mode="normal" in="SourceGraphic" in2="effect1_dropShadow_805_899" result="shape"/>
</filter>
<clipPath id="clip0_805_899">
<rect width="80" height="80" fill="white"/>
</clipPath>
</defs>
</svg>
