<svg width="80" height="80" viewBox="0 0 80 80" fill="none" xmlns="http://www.w3.org/2000/svg">
<g clip-path="url(#clip0_805_882)">
<g filter="url(#filter0_d_805_882)">
<path fill-rule="evenodd" clip-rule="evenodd" d="M40 62C52.1495 62 62 52.1495 62 40C62 27.8503 52.1521 18 40 18C27.8505 18 18 27.8505 18 40C18 52.1495 27.8505 62 40 62ZM40 64C53.2541 64 64 53.2541 64 40C64 26.7459 53.2569 16 40 16C26.7459 16 16 26.7459 16 40C16 53.2541 26.7459 64 40 64Z" fill="white"/>
<path d="M61 40C61 51.5972 51.5972 61 40 61C28.4028 61 19 51.5972 19 40C19 28.4028 28.4028 19 40 19C51.5998 19 61 28.4026 61 40ZM40 65C53.8064 65 65 53.8064 65 40C65 26.1937 53.8092 15 40 15C26.1936 15 15 26.1936 15 40C15 53.8064 26.1936 65 40 65Z" stroke="#2081E2" stroke-width="2"/>
</g>
<g filter="url(#filter1_d_805_882)">
<mask id="path-3-outside-1_805_882" maskUnits="userSpaceOnUse" x="22.08" y="21.5996" width="38" height="35" fill="black">
<rect fill="white" x="22.08" y="21.5996" width="38" height="35"/>
<path fill-rule="evenodd" clip-rule="evenodd" d="M44.3538 44.0387C44.3144 44.0732 44.2626 44.0929 44.2084 44.0929H42.1075V46.788H44.7508C45.3426 46.788 45.9048 46.5784 46.3585 46.1938L46.3706 46.1832C46.5466 46.0297 47.2112 45.45 47.9933 44.5861C48.0204 44.5565 48.055 44.5343 48.0944 44.5245L55.3956 42.4137C55.5312 42.3743 55.6693 42.4779 55.6693 42.6209V44.1669C55.6693 44.2557 55.615 44.3346 55.5362 44.3691C55.5104 44.3802 55.4812 44.3928 55.4491 44.4069C55.3402 44.4549 55.1968 44.5202 55.0314 44.6009C54.331 44.9427 53.2372 45.5597 52.7104 46.2924C52.3277 46.8251 51.9646 47.4076 51.5999 47.9931C50.2912 50.0932 48.9597 52.23 46.6149 52.23H34.1061C29.6726 52.23 26.08 48.625 26.08 44.1768V44.0337C26.08 43.9154 26.1761 43.8192 26.2945 43.8192H33.2677C33.4058 43.8192 33.5069 43.9475 33.4946 44.0831C33.4452 44.5368 33.5291 45.0004 33.7436 45.422C34.1579 46.2628 35.016 46.788 35.9431 46.788H39.3952V44.0929H35.9825C35.8075 44.0929 35.7039 43.8908 35.805 43.7477C35.8256 43.7161 35.8477 43.6838 35.871 43.6498C35.8894 43.6228 35.9087 43.5947 35.9283 43.5653C35.9459 43.5402 35.964 43.5143 35.9825 43.4877C36.2023 43.1714 36.4774 42.7511 36.7689 42.2696C36.8041 42.2116 36.8394 42.1527 36.875 42.0929C36.9728 41.9285 37.072 41.7579 37.171 41.5828C37.4842 41.0354 37.7875 40.451 38.0316 39.8641C38.0774 39.7658 38.1146 39.6653 38.1513 39.5665L38.1598 39.5436C38.177 39.495 38.1945 39.4473 38.2116 39.4003C38.2608 39.2656 38.3082 39.1357 38.3448 39.0061C38.385 38.8852 38.4187 38.7594 38.4512 38.6381L38.473 38.5573C38.5889 38.0592 38.6382 37.5315 38.6382 36.9841C38.6382 36.7696 38.6283 36.5452 38.6086 36.3307C38.5987 36.0964 38.5691 35.8622 38.5395 35.628C38.5198 35.4208 38.4828 35.2161 38.4434 35.0016C38.394 34.6885 38.325 34.3778 38.2461 34.0646L38.219 33.9463C38.2013 33.8822 38.1845 33.8191 38.1678 33.7563C38.1286 33.6087 38.0899 33.463 38.0414 33.3126C37.8467 32.6394 37.6222 31.9835 37.3856 31.3695C37.2996 31.1262 37.2013 30.8927 37.103 30.6593L37.102 30.6569C36.99 30.3856 36.8766 30.1332 36.7685 29.8931C36.7662 29.8881 36.764 29.8831 36.7618 29.8781C36.7317 29.8114 36.702 29.7454 36.673 29.6805C36.6303 29.5953 36.5915 29.5147 36.5541 29.4354C36.5309 29.3862 36.5082 29.3375 36.4856 29.2884C36.419 29.1429 36.3499 28.9975 36.2809 28.8593C36.2616 28.8178 36.2411 28.7774 36.221 28.7377C36.1898 28.6761 36.1594 28.6161 36.1354 28.5561L35.7138 27.7769C35.6546 27.6709 35.7532 27.5451 35.8691 27.5772L37.5908 28.0438L38.5075 28.2922H38.5149C38.5178 28.2922 38.5215 28.2938 38.5215 28.2938L38.5248 28.2947L38.8724 28.3909L39.2546 28.4993L39.3952 28.5388V26.9706C39.3952 26.7996 39.4261 26.636 39.4826 26.4851C39.6764 25.9676 40.171 25.5996 40.7514 25.5996C41.1261 25.5996 41.4664 25.7525 41.7105 26.0015C41.9546 26.2506 42.1075 26.5909 42.1075 26.9706V29.2983L42.3886 29.3772C42.4108 29.3846 42.433 29.3944 42.4528 29.4092C42.4788 29.4287 42.509 29.4518 42.5433 29.4779C42.5999 29.521 42.668 29.5729 42.7461 29.6311C42.7859 29.6629 42.8269 29.6976 42.87 29.734C42.9339 29.788 43.0025 29.846 43.079 29.9048C43.333 30.1095 43.6363 30.3734 43.9692 30.6766C44.0579 30.7531 44.1443 30.832 44.2232 30.9109C44.6522 31.3103 45.133 31.7789 45.5917 32.2967C45.7199 32.4421 45.8457 32.5901 45.9739 32.7454C46.0192 32.8012 46.0655 32.8567 46.1115 32.912C46.1958 33.0131 46.2796 33.1135 46.3561 33.214C46.3845 33.2519 46.4134 33.2901 46.4424 33.3285C46.572 33.4999 46.7058 33.6768 46.8245 33.86C46.8545 33.906 46.8864 33.9526 46.9183 33.9992C46.9598 34.0598 47.0014 34.1206 47.0391 34.1805C47.2265 34.4641 47.3917 34.7575 47.5495 35.0509C47.6161 35.1865 47.6851 35.3345 47.7443 35.48C47.9194 35.872 48.0574 36.2715 48.1462 36.671C48.1733 36.7573 48.1931 36.851 48.2029 36.9348V36.9545C48.2325 37.0729 48.2424 37.1987 48.2522 37.3269C48.2917 37.7361 48.272 38.1455 48.1832 38.5573C48.1462 38.7324 48.0969 38.8975 48.0377 39.0726L48.0176 39.1297C47.9649 39.2797 47.9107 39.434 47.8429 39.5806C47.695 39.9233 47.5199 40.2661 47.3128 40.5866C47.2462 40.7049 47.1673 40.8307 47.0884 40.9491C47.0461 41.0107 47.0032 41.0706 46.9611 41.1293C46.9175 41.1902 46.8746 41.2501 46.8344 41.3091C46.7259 41.4571 46.61 41.6124 46.4917 41.7504C46.3857 41.8959 46.2771 42.0414 46.1588 42.1696C45.9936 42.3644 45.8358 42.5494 45.6706 42.7269C45.572 42.8428 45.4659 42.9612 45.3574 43.0672C45.2663 43.1688 45.1734 43.2614 45.0866 43.348L45.0443 43.3902C44.879 43.5554 44.741 43.6836 44.6251 43.7896L44.3538 44.0387ZM48.5814 42.3018L54.8368 40.4934L54.8396 40.4926C56.2649 40.0802 57.6693 41.1578 57.6693 42.6209V44.1669C57.6693 45.0777 57.1192 45.8596 56.3377 46.2014L56.3309 46.2044L56.3241 46.2074C56.1264 46.2921 55.6814 46.4938 55.2275 46.7656C54.7254 47.0662 54.432 47.3243 54.3344 47.4597M48.5814 42.3018C48.5832 42.2993 48.5851 42.2967 48.5869 42.2941L48.5908 42.2887C48.6307 42.233 48.6836 42.1591 48.7375 42.0806L48.7449 42.0698L48.7522 42.0588C48.8401 41.927 48.9354 41.7769 49.0248 41.6217C49.2848 41.2124 49.4967 40.7934 49.67 40.3944C49.7729 40.168 49.8504 39.9469 49.8971 39.8138L49.9046 39.7926L49.9236 39.7385L49.9281 39.7259L49.9323 39.7132C50.0055 39.4969 50.0803 39.2523 50.1392 38.9747C50.2712 38.3602 50.3003 37.7525 50.2451 37.1575C50.2451 37.1575 50.2448 37.1537 50.2447 37.1517C50.238 37.0617 50.2239 36.872 50.1835 36.6552C50.1621 36.4934 50.128 36.3272 50.0822 36.1653C49.9626 35.6516 49.7891 35.1586 49.5838 34.6944C49.5038 34.5007 49.418 34.3187 49.3449 34.1698L49.3285 34.1363L49.3109 34.1035C49.1456 33.7962 48.9509 33.4477 48.7193 33.0955C48.6644 33.0092 48.6094 32.9289 48.5744 32.8778L48.5685 32.8692C48.5348 32.82 48.5163 32.7927 48.5012 32.7696C48.3429 32.5257 48.1726 32.3006 48.0515 32.1405L48.038 32.1226C48.0084 32.0835 47.9818 32.0483 47.9559 32.0138L47.9515 32.0079L47.947 32.002C47.8435 31.8661 47.7354 31.7365 47.6573 31.6427L47.6478 31.6314C47.6003 31.5745 47.5622 31.5287 47.5261 31.4843L47.5213 31.4783L47.5164 31.4724C47.3762 31.3025 47.2363 31.1378 47.092 30.9741L47.0888 30.9706C46.5794 30.3955 46.0566 29.886 45.6098 29.4693C45.5043 29.3653 45.3978 29.2683 45.2968 29.1806C44.9544 28.8691 44.6255 28.5825 44.3341 28.3476L44.3164 28.3334L44.2984 28.3195C44.2634 28.2926 44.2281 28.2632 44.1609 28.2064L44.1547 28.2011C44.1411 28.1897 44.1252 28.1762 44.1075 28.1614V26.9706C44.1075 26.0391 43.7291 25.2038 43.1389 24.6016C42.5304 23.9808 41.6802 23.5996 40.7514 23.5996C39.2336 23.5996 37.9741 24.6023 37.5491 25.9603L36.3952 25.6476C34.5564 25.145 33.0648 27.1031 33.9582 28.735L33.9984 28.8094C33.415 28.9066 32.8634 29.235 32.5023 29.8L32.5011 29.802L26.259 39.5669L26.1561 39.7286C25.713 40.4192 25.7097 41.199 26.0046 41.838C24.9189 41.98 24.08 42.9088 24.08 44.0337V44.1768C24.08 49.7232 28.5616 54.23 34.1061 54.23H46.6149C48.4849 54.23 49.8852 53.3476 50.9165 52.3069C51.8661 51.3487 52.6274 50.1264 53.2427 49.1385C53.261 49.109 53.2792 49.0798 53.2973 49.0508C53.6689 48.4544 53.9971 47.9292 54.3344 47.4597M35.2336 32.5564C35.0645 32.0941 34.8815 31.6384 34.6919 31.1997L34.6914 31.1985C34.6487 31.0995 34.6056 31.0014 34.5622 30.9043C34.4932 30.749 34.2787 30.7342 34.1875 30.8772L27.9441 40.6441L27.8405 40.8069C27.7493 40.9474 27.8504 41.1349 28.023 41.1349H34.4439C34.5154 41.1349 34.582 41.1003 34.6214 41.0412C34.7053 40.9129 34.7842 40.7798 34.8557 40.6441C35.4105 39.7121 35.9036 38.7036 36.0836 37.9589C36.3958 36.6189 35.9835 34.6774 35.3251 32.8109C35.2951 32.7259 35.2646 32.641 35.2336 32.5564ZM42.8927 29.7073L42.8973 29.7017L42.8927 29.7073Z"/>
</mask>
<path fill-rule="evenodd" clip-rule="evenodd" d="M44.3538 44.0387C44.3144 44.0732 44.2626 44.0929 44.2084 44.0929H42.1075V46.788H44.7508C45.3426 46.788 45.9048 46.5784 46.3585 46.1938L46.3706 46.1832C46.5466 46.0297 47.2112 45.45 47.9933 44.5861C48.0204 44.5565 48.055 44.5343 48.0944 44.5245L55.3956 42.4137C55.5312 42.3743 55.6693 42.4779 55.6693 42.6209V44.1669C55.6693 44.2557 55.615 44.3346 55.5362 44.3691C55.5104 44.3802 55.4812 44.3928 55.4491 44.4069C55.3402 44.4549 55.1968 44.5202 55.0314 44.6009C54.331 44.9427 53.2372 45.5597 52.7104 46.2924C52.3277 46.8251 51.9646 47.4076 51.5999 47.9931C50.2912 50.0932 48.9597 52.23 46.6149 52.23H34.1061C29.6726 52.23 26.08 48.625 26.08 44.1768V44.0337C26.08 43.9154 26.1761 43.8192 26.2945 43.8192H33.2677C33.4058 43.8192 33.5069 43.9475 33.4946 44.0831C33.4452 44.5368 33.5291 45.0004 33.7436 45.422C34.1579 46.2628 35.016 46.788 35.9431 46.788H39.3952V44.0929H35.9825C35.8075 44.0929 35.7039 43.8908 35.805 43.7477C35.8256 43.7161 35.8477 43.6838 35.871 43.6498C35.8894 43.6228 35.9087 43.5947 35.9283 43.5653C35.9459 43.5402 35.964 43.5143 35.9825 43.4877C36.2023 43.1714 36.4774 42.7511 36.7689 42.2696C36.8041 42.2116 36.8394 42.1527 36.875 42.0929C36.9728 41.9285 37.072 41.7579 37.171 41.5828C37.4842 41.0354 37.7875 40.451 38.0316 39.8641C38.0774 39.7658 38.1146 39.6653 38.1513 39.5665L38.1598 39.5436C38.177 39.495 38.1945 39.4473 38.2116 39.4003C38.2608 39.2656 38.3082 39.1357 38.3448 39.0061C38.385 38.8852 38.4187 38.7594 38.4512 38.6381L38.473 38.5573C38.5889 38.0592 38.6382 37.5315 38.6382 36.9841C38.6382 36.7696 38.6283 36.5452 38.6086 36.3307C38.5987 36.0964 38.5691 35.8622 38.5395 35.628C38.5198 35.4208 38.4828 35.2161 38.4434 35.0016C38.394 34.6885 38.325 34.3778 38.2461 34.0646L38.219 33.9463C38.2013 33.8822 38.1845 33.8191 38.1678 33.7563C38.1286 33.6087 38.0899 33.463 38.0414 33.3126C37.8467 32.6394 37.6222 31.9835 37.3856 31.3695C37.2996 31.1262 37.2013 30.8927 37.103 30.6593L37.102 30.6569C36.99 30.3856 36.8766 30.1332 36.7685 29.8931C36.7662 29.8881 36.764 29.8831 36.7618 29.8781C36.7317 29.8114 36.702 29.7454 36.673 29.6805C36.6303 29.5953 36.5915 29.5147 36.5541 29.4354C36.5309 29.3862 36.5082 29.3375 36.4856 29.2884C36.419 29.1429 36.3499 28.9975 36.2809 28.8593C36.2616 28.8178 36.2411 28.7774 36.221 28.7377C36.1898 28.6761 36.1594 28.6161 36.1354 28.5561L35.7138 27.7769C35.6546 27.6709 35.7532 27.5451 35.8691 27.5772L37.5908 28.0438L38.5075 28.2922H38.5149C38.5178 28.2922 38.5215 28.2938 38.5215 28.2938L38.5248 28.2947L38.8724 28.3909L39.2546 28.4993L39.3952 28.5388V26.9706C39.3952 26.7996 39.4261 26.636 39.4826 26.4851C39.6764 25.9676 40.171 25.5996 40.7514 25.5996C41.1261 25.5996 41.4664 25.7525 41.7105 26.0015C41.9546 26.2506 42.1075 26.5909 42.1075 26.9706V29.2983L42.3886 29.3772C42.4108 29.3846 42.433 29.3944 42.4528 29.4092C42.4788 29.4287 42.509 29.4518 42.5433 29.4779C42.5999 29.521 42.668 29.5729 42.7461 29.6311C42.7859 29.6629 42.8269 29.6976 42.87 29.734C42.9339 29.788 43.0025 29.846 43.079 29.9048C43.333 30.1095 43.6363 30.3734 43.9692 30.6766C44.0579 30.7531 44.1443 30.832 44.2232 30.9109C44.6522 31.3103 45.133 31.7789 45.5917 32.2967C45.7199 32.4421 45.8457 32.5901 45.9739 32.7454C46.0192 32.8012 46.0655 32.8567 46.1115 32.912C46.1958 33.0131 46.2796 33.1135 46.3561 33.214C46.3845 33.2519 46.4134 33.2901 46.4424 33.3285C46.572 33.4999 46.7058 33.6768 46.8245 33.86C46.8545 33.906 46.8864 33.9526 46.9183 33.9992C46.9598 34.0598 47.0014 34.1206 47.0391 34.1805C47.2265 34.4641 47.3917 34.7575 47.5495 35.0509C47.6161 35.1865 47.6851 35.3345 47.7443 35.48C47.9194 35.872 48.0574 36.2715 48.1462 36.671C48.1733 36.7573 48.1931 36.851 48.2029 36.9348V36.9545C48.2325 37.0729 48.2424 37.1987 48.2522 37.3269C48.2917 37.7361 48.272 38.1455 48.1832 38.5573C48.1462 38.7324 48.0969 38.8975 48.0377 39.0726L48.0176 39.1297C47.9649 39.2797 47.9107 39.434 47.8429 39.5806C47.695 39.9233 47.5199 40.2661 47.3128 40.5866C47.2462 40.7049 47.1673 40.8307 47.0884 40.9491C47.0461 41.0107 47.0032 41.0706 46.9611 41.1293C46.9175 41.1902 46.8746 41.2501 46.8344 41.3091C46.7259 41.4571 46.61 41.6124 46.4917 41.7504C46.3857 41.8959 46.2771 42.0414 46.1588 42.1696C45.9936 42.3644 45.8358 42.5494 45.6706 42.7269C45.572 42.8428 45.4659 42.9612 45.3574 43.0672C45.2663 43.1688 45.1734 43.2614 45.0866 43.348L45.0443 43.3902C44.879 43.5554 44.741 43.6836 44.6251 43.7896L44.3538 44.0387ZM48.5814 42.3018L54.8368 40.4934L54.8396 40.4926C56.2649 40.0802 57.6693 41.1578 57.6693 42.6209V44.1669C57.6693 45.0777 57.1192 45.8596 56.3377 46.2014L56.3309 46.2044L56.3241 46.2074C56.1264 46.2921 55.6814 46.4938 55.2275 46.7656C54.7254 47.0662 54.432 47.3243 54.3344 47.4597M48.5814 42.3018C48.5832 42.2993 48.5851 42.2967 48.5869 42.2941L48.5908 42.2887C48.6307 42.233 48.6836 42.1591 48.7375 42.0806L48.7449 42.0698L48.7522 42.0588C48.8401 41.927 48.9354 41.7769 49.0248 41.6217C49.2848 41.2124 49.4967 40.7934 49.67 40.3944C49.7729 40.168 49.8504 39.9469 49.8971 39.8138L49.9046 39.7926L49.9236 39.7385L49.9281 39.7259L49.9323 39.7132C50.0055 39.4969 50.0803 39.2523 50.1392 38.9747C50.2712 38.3602 50.3003 37.7525 50.2451 37.1575C50.2451 37.1575 50.2448 37.1537 50.2447 37.1517C50.238 37.0617 50.2239 36.872 50.1835 36.6552C50.1621 36.4934 50.128 36.3272 50.0822 36.1653C49.9626 35.6516 49.7891 35.1586 49.5838 34.6944C49.5038 34.5007 49.418 34.3187 49.3449 34.1698L49.3285 34.1363L49.3109 34.1035C49.1456 33.7962 48.9509 33.4477 48.7193 33.0955C48.6644 33.0092 48.6094 32.9289 48.5744 32.8778L48.5685 32.8692C48.5348 32.82 48.5163 32.7927 48.5012 32.7696C48.3429 32.5257 48.1726 32.3006 48.0515 32.1405L48.038 32.1226C48.0084 32.0835 47.9818 32.0483 47.9559 32.0138L47.9515 32.0079L47.947 32.002C47.8435 31.8661 47.7354 31.7365 47.6573 31.6427L47.6478 31.6314C47.6003 31.5745 47.5622 31.5287 47.5261 31.4843L47.5213 31.4783L47.5164 31.4724C47.3762 31.3025 47.2363 31.1378 47.092 30.9741L47.0888 30.9706C46.5794 30.3955 46.0566 29.886 45.6098 29.4693C45.5043 29.3653 45.3978 29.2683 45.2968 29.1806C44.9544 28.8691 44.6255 28.5825 44.3341 28.3476L44.3164 28.3334L44.2984 28.3195C44.2634 28.2926 44.2281 28.2632 44.1609 28.2064L44.1547 28.2011C44.1411 28.1897 44.1252 28.1762 44.1075 28.1614V26.9706C44.1075 26.0391 43.7291 25.2038 43.1389 24.6016C42.5304 23.9808 41.6802 23.5996 40.7514 23.5996C39.2336 23.5996 37.9741 24.6023 37.5491 25.9603L36.3952 25.6476C34.5564 25.145 33.0648 27.1031 33.9582 28.735L33.9984 28.8094C33.415 28.9066 32.8634 29.235 32.5023 29.8L32.5011 29.802L26.259 39.5669L26.1561 39.7286C25.713 40.4192 25.7097 41.199 26.0046 41.838C24.9189 41.98 24.08 42.9088 24.08 44.0337V44.1768C24.08 49.7232 28.5616 54.23 34.1061 54.23H46.6149C48.4849 54.23 49.8852 53.3476 50.9165 52.3069C51.8661 51.3487 52.6274 50.1264 53.2427 49.1385C53.261 49.109 53.2792 49.0798 53.2973 49.0508C53.6689 48.4544 53.9971 47.9292 54.3344 47.4597M35.2336 32.5564C35.0645 32.0941 34.8815 31.6384 34.6919 31.1997L34.6914 31.1985C34.6487 31.0995 34.6056 31.0014 34.5622 30.9043C34.4932 30.749 34.2787 30.7342 34.1875 30.8772L27.9441 40.6441L27.8405 40.8069C27.7493 40.9474 27.8504 41.1349 28.023 41.1349H34.4439C34.5154 41.1349 34.582 41.1003 34.6214 41.0412C34.7053 40.9129 34.7842 40.7798 34.8557 40.6441C35.4105 39.7121 35.9036 38.7036 36.0836 37.9589C36.3958 36.6189 35.9835 34.6774 35.3251 32.8109C35.2951 32.7259 35.2646 32.641 35.2336 32.5564ZM42.8927 29.7073L42.8973 29.7017L42.8927 29.7073Z" fill="white"/>
<path d="M42.8749 29.7283L43.6348 30.3783L43.6387 30.3737L42.8749 29.7283ZM43.6299 30.384L43.6348 30.3783L42.115 29.0783L42.1101 29.084L43.6299 30.384ZM43.6387 30.3737L43.6565 30.3527L42.1288 29.0619L42.111 29.0829L43.6387 30.3737ZM44.3538 44.0387L45.6713 45.5435L45.6891 45.5279L45.7065 45.5119L44.3538 44.0387ZM42.1075 44.0929V42.0929H40.1075V44.0929H42.1075ZM42.1075 46.788H40.1075V48.788H42.1075V46.788ZM46.3585 46.1938L47.6518 47.7194L47.6627 47.7101L47.6734 47.7008L46.3585 46.1938ZM46.3706 46.1832L45.056 44.676L45.0557 44.6762L46.3706 46.1832ZM47.9933 44.5861L46.518 43.2357L46.5107 43.2438L47.9933 44.5861ZM48.0944 44.5245L48.5801 46.4646L48.6151 46.4558L48.6498 46.4458L48.0944 44.5245ZM55.3956 42.4137L55.951 44.3351L55.9544 44.3341L55.3956 42.4137ZM55.5362 44.3691L56.324 46.2074L56.3309 46.2044L56.3377 46.2014L55.5362 44.3691ZM55.4491 44.4069L54.6434 42.5764L54.6434 42.5764L55.4491 44.4069ZM55.0314 44.6009L54.1543 42.8035H54.1543L55.0314 44.6009ZM52.7104 46.2924L51.0866 45.1248L51.0861 45.1254L52.7104 46.2924ZM51.5999 47.9931L49.9024 46.9354L49.9024 46.9354L51.5999 47.9931ZM33.4946 44.0831L35.4828 44.2993L35.4848 44.2817L35.4864 44.264L33.4946 44.0831ZM33.7436 45.422L35.5376 44.538L35.532 44.5266L35.5262 44.5152L33.7436 45.422ZM39.3952 46.788V48.788H41.3952V46.788H39.3952ZM39.3952 44.0929H41.3952V42.0929H39.3952V44.0929ZM35.805 43.7477L37.4381 44.9022L37.4599 44.8715L37.4804 44.84L35.805 43.7477ZM35.871 43.6498L34.2201 42.5208L34.2201 42.5208L35.871 43.6498ZM35.9283 43.5653L34.2932 42.4135L34.2784 42.4345L34.2642 42.4559L35.9283 43.5653ZM35.9825 43.4877L37.6248 44.6291L37.6248 44.6291L35.9825 43.4877ZM36.7689 42.2696L35.0581 41.2337L35.0581 41.2337L36.7689 42.2696ZM36.875 42.0929L38.5936 43.1158L38.5936 43.1158L36.875 42.0929ZM37.171 41.5828L35.435 40.5896L35.43 40.5984L37.171 41.5828ZM38.0316 39.8641L36.2183 39.0204L36.2008 39.0579L36.185 39.096L38.0316 39.8641ZM38.1513 39.5665L36.2762 38.8706L36.2761 38.8709L38.1513 39.5665ZM38.1598 39.5436L40.0348 40.2394L40.0396 40.2265L40.0442 40.2135L38.1598 39.5436ZM38.2116 39.4003L36.3329 38.7144L36.3329 38.7144L38.2116 39.4003ZM38.3448 39.0061L36.4473 38.374L36.4325 38.4184L36.4197 38.4635L38.3448 39.0061ZM38.4512 38.6381L36.5199 38.1185L36.5194 38.1204L38.4512 38.6381ZM38.473 38.5573L40.4043 39.0768L40.4132 39.0438L40.4209 39.0105L38.473 38.5573ZM38.6086 36.3307L36.6104 36.4148L36.6125 36.4644L36.617 36.5138L38.6086 36.3307ZM38.5395 35.628L36.5485 35.8176L36.5515 35.8482L36.5553 35.8787L38.5395 35.628ZM38.4434 35.0016L36.4677 35.3129L36.4717 35.3382L36.4764 35.3635L38.4434 35.0016ZM38.2461 34.0646L36.2965 34.5109L36.3014 34.5322L36.3067 34.5534L38.2461 34.0646ZM38.219 33.9463L40.1686 33.5L40.1587 33.4569L40.1469 33.4142L38.219 33.9463ZM38.1678 33.7563L36.235 34.2701L38.1678 33.7563ZM38.0414 33.3126L36.1202 33.8684L36.1285 33.8971L36.1377 33.9255L38.0414 33.3126ZM37.3856 31.3695L35.4999 32.0361L35.5093 32.0627L35.5194 32.0889L37.3856 31.3695ZM37.103 30.6593L38.9463 29.8833L38.9458 29.8822L37.103 30.6593ZM37.102 30.6569L35.2532 31.4197L35.2561 31.4269L35.2591 31.4341L37.102 30.6569ZM36.7685 29.8931L38.5922 29.072L38.5922 29.072L36.7685 29.8931ZM36.7618 29.8781L34.9381 30.6992L34.9381 30.6992L36.7618 29.8781ZM36.673 29.6805L38.4989 28.8643L38.4811 28.8246L38.4617 28.7858L36.673 29.6805ZM36.5541 29.4354L34.7453 30.2888L34.7453 30.2888L36.5541 29.4354ZM36.4856 29.2884L34.6668 30.1204L34.6695 30.1262L36.4856 29.2884ZM36.2809 28.8593L34.4676 29.7031L34.4793 29.7283L34.4918 29.7532L36.2809 28.8593ZM36.221 28.7377L38.0052 27.8339L38.0052 27.8339L36.221 28.7377ZM36.1354 28.5561L37.9926 27.8138L37.9496 27.7062L37.8944 27.6042L36.1354 28.5561ZM35.7138 27.7769L37.4727 26.825L37.4665 26.8134L37.46 26.8019L35.7138 27.7769ZM35.8691 27.5772L35.3357 29.5048L35.3459 29.5075L35.8691 27.5772ZM37.5908 28.0438L38.114 26.1134L37.5908 28.0438ZM38.5075 28.2922L37.9843 30.2226L38.2412 30.2922H38.5075V28.2922ZM38.5215 28.2938L37.7618 30.1439L37.8682 30.1876L37.9788 30.2188L38.5215 28.2938ZM38.5248 28.2947L37.9821 30.2197L37.9916 30.2223L38.5248 28.2947ZM38.8724 28.3909L39.4186 26.4668L39.4056 26.4632L38.8724 28.3909ZM39.2546 28.4993L38.7085 30.4233L38.7139 30.4249L39.2546 28.4993ZM39.3952 28.5388L38.8544 30.4643L41.3952 31.1778V28.5388H39.3952ZM39.4826 26.4851L41.3556 27.1865L41.3556 27.1865L39.4826 26.4851ZM41.7105 26.0015L43.1389 24.6016L43.1389 24.6016L41.7105 26.0015ZM42.1075 29.2983H40.1075V30.8143L41.5671 31.2239L42.1075 29.2983ZM42.3886 29.3772L43.0211 27.4798L42.9754 27.4646L42.929 27.4516L42.3886 29.3772ZM42.4528 29.4092L43.6532 27.8095L43.6514 27.8082L42.4528 29.4092ZM42.5433 29.4779L41.331 31.0686L41.3311 31.0687L42.5433 29.4779ZM42.7461 29.6311L43.9955 28.0694L43.9685 28.0477L43.9407 28.027L42.7461 29.6311ZM42.87 29.734L44.1609 28.2064L44.1608 28.2063L42.87 29.734ZM43.079 29.9048L44.3341 28.3476L44.3164 28.3334L44.2984 28.3195L43.079 29.9048ZM43.9692 30.6766L42.6223 32.1552L42.6427 32.1737L42.6635 32.1916L43.9692 30.6766ZM44.2232 30.9109L42.8085 32.3247L42.834 32.3502L42.8604 32.3748L44.2232 30.9109ZM45.5917 32.2967L47.092 30.9741L47.0888 30.9706L45.5917 32.2967ZM45.9739 32.7454L47.5261 31.4843L47.5213 31.4783L47.5164 31.4724L45.9739 32.7454ZM46.1115 32.912L44.5753 34.1926L44.5753 34.1926L46.1115 32.912ZM46.3561 33.214L47.9559 32.0138L47.9515 32.0079L47.947 32.002L46.3561 33.214ZM46.4424 33.3285L44.847 34.5346L44.8471 34.5347L46.4424 33.3285ZM46.8245 33.86L45.1463 34.9479L45.1487 34.9516L46.8245 33.86ZM46.9183 33.9992L48.5685 32.8692L48.5685 32.8692L46.9183 33.9992ZM47.0391 34.1805L45.3456 35.2445L45.3578 35.2639L45.3704 35.283L47.0391 34.1805ZM47.5495 35.0509L49.3449 34.1698L49.3285 34.1363L49.3109 34.1035L47.5495 35.0509ZM47.7443 35.48L45.8915 36.2332L45.9043 36.2646L45.9181 36.2956L47.7443 35.48ZM48.1462 36.671L46.1938 37.1047L46.2125 37.1889L46.2384 37.2711L48.1462 36.671ZM48.2029 36.9348H50.2029V36.8175L50.1892 36.7011L48.2029 36.9348ZM48.2029 36.9545H46.2029V37.2003L46.2624 37.4387L48.2029 36.9545ZM48.2522 37.3269L46.2581 37.4803L46.2596 37.4996L46.2615 37.5188L48.2522 37.3269ZM48.1832 38.5573L46.2281 38.1359L46.2264 38.1436L48.1832 38.5573ZM48.0377 39.0726L49.9243 39.7365L49.9284 39.7249L49.9323 39.7132L48.0377 39.0726ZM48.0176 39.1297L46.131 38.4659L46.1307 38.4669L48.0176 39.1297ZM47.8429 39.5806L46.0277 38.7409L46.0169 38.7643L46.0067 38.7879L47.8429 39.5806ZM47.3128 40.5866L45.633 39.501L45.5996 39.5526L45.5695 39.6062L47.3128 40.5866ZM47.0884 40.9491L48.7375 42.0806L48.7449 42.0698L48.7522 42.0588L47.0884 40.9491ZM46.9611 41.1293L45.3352 39.9646L45.3352 39.9647L46.9611 41.1293ZM46.8344 41.3091L48.4473 42.4917L48.4679 42.4637L48.4874 42.435L46.8344 41.3091ZM46.4917 41.7504L44.9731 40.4489L44.9218 40.5088L44.8754 40.5725L46.4917 41.7504ZM46.1588 42.1696L44.6891 40.8131L44.6606 40.844L44.6334 40.8761L46.1588 42.1696ZM45.6706 42.7269L44.2065 41.3644L44.1762 41.397L44.1473 41.4308L45.6706 42.7269ZM45.3574 43.0672L43.9598 41.6365L43.9122 41.6831L43.8678 41.7326L45.3574 43.0672ZM45.0866 43.348L43.6748 41.9313L43.674 41.9321L45.0866 43.348ZM45.0443 43.3902L43.6317 41.9743L43.6301 41.976L45.0443 43.3902ZM44.6251 43.7896L43.2751 42.314L43.2724 42.3165L44.6251 43.7896ZM54.8368 40.4934L55.3922 42.4147L55.3954 42.4138L54.8368 40.4934ZM48.5814 42.3018L46.9553 41.1374L43.5997 45.8238L49.1369 44.2231L48.5814 42.3018ZM54.8396 40.4926L54.2837 38.5714L54.2809 38.5722L54.8396 40.4926ZM56.3377 46.2014L57.1389 48.034L57.1393 48.0338L56.3377 46.2014ZM56.3309 46.2044L57.119 48.0426L57.1255 48.0398L57.1321 48.037L56.3309 46.2044ZM56.3241 46.2074L57.1119 48.0456L57.1121 48.0456L56.3241 46.2074ZM55.2275 46.7656L54.2 45.0497H54.2L55.2275 46.7656ZM54.3344 47.4597L52.7117 46.2905L52.7101 46.2928L54.3344 47.4597ZM48.5869 42.2941L50.2128 43.4587L50.213 43.4585L48.5869 42.2941ZM48.5908 42.2887L46.9649 41.124L46.9647 41.1243L48.5908 42.2887ZM48.7375 42.0806L47.0884 40.9491L47.0884 40.9491L48.7375 42.0806ZM48.7449 42.0698L50.3941 43.2013L50.4015 43.1905L50.4088 43.1796L48.7449 42.0698ZM48.7522 42.0588L50.4161 43.1686L50.4161 43.1685L48.7522 42.0588ZM49.0248 41.6217L47.3366 40.5494L47.3134 40.5859L47.2918 40.6234L49.0248 41.6217ZM49.67 40.3944L47.8493 39.5666L47.8423 39.5821L47.8355 39.5976L49.67 40.3944ZM49.8971 39.8138L48.0099 39.1517L48.0098 39.1519L49.8971 39.8138ZM49.9046 39.7926L48.018 39.1288L48.0174 39.1305L49.9046 39.7926ZM49.9236 39.7385L48.0378 39.0724L48.037 39.0747L49.9236 39.7385ZM49.9281 39.7259L51.8139 40.392L51.8184 40.3791L51.8228 40.3662L49.9281 39.7259ZM49.9323 39.7132L48.0377 39.0726L48.0376 39.0729L49.9323 39.7132ZM50.1392 38.9747L48.1838 38.5546L48.1827 38.5596L50.1392 38.9747ZM50.2451 37.1575L48.2507 37.3066L48.252 37.3245L48.2537 37.3423L50.2451 37.1575ZM50.2447 37.1517L52.2393 37.0044L52.2392 37.0036L50.2447 37.1517ZM50.1835 36.6552L48.2007 36.917L48.2077 36.9696L48.2174 37.0218L50.1835 36.6552ZM50.0822 36.1653L48.1343 36.6189L48.145 36.6645L48.1577 36.7095L50.0822 36.1653ZM49.5838 34.6944L47.7351 35.4575L47.7446 35.4807L47.7548 35.5037L49.5838 34.6944ZM49.3449 34.1698L51.1404 33.2886L51.1404 33.2886L49.3449 34.1698ZM49.3285 34.1363L51.1239 33.2551L51.1075 33.2217L51.0899 33.1889L49.3285 34.1363ZM49.3109 34.1035L51.0722 33.1561L51.0722 33.1561L49.3109 34.1035ZM48.7193 33.0955L47.0317 34.1688L47.0398 34.1816L47.0481 34.1942L48.7193 33.0955ZM48.5744 32.8778L46.9244 34.008L46.9244 34.0081L48.5744 32.8778ZM48.5685 32.8692L46.9183 33.9991L46.9185 33.9994L48.5685 32.8692ZM48.5012 32.7696L46.8235 33.8583L46.8263 33.8626L48.5012 32.7696ZM48.0515 32.1405L46.4562 33.3468L46.4564 33.347L48.0515 32.1405ZM48.038 32.1226L46.4427 33.3288L46.4427 33.3289L48.038 32.1226ZM47.9559 32.0138L46.356 33.2138L46.3561 33.214L47.9559 32.0138ZM47.9515 32.0079L49.5515 30.8078L49.5469 30.8018L49.5424 30.7958L47.9515 32.0079ZM47.947 32.002L46.3561 33.214L46.3562 33.2141L47.947 32.002ZM47.6573 31.6427L49.1934 30.362L49.1933 30.3619L47.6573 31.6427ZM47.6478 31.6314L46.1116 32.9121L46.1118 32.9122L47.6478 31.6314ZM47.5261 31.4843L49.0784 30.2231L49.0783 30.223L47.5261 31.4843ZM47.5213 31.4783L49.0735 30.2171L49.0688 30.2113L49.064 30.2055L47.5213 31.4783ZM47.5164 31.4724L49.0591 30.1996L49.059 30.1994L47.5164 31.4724ZM47.092 30.9741L48.5923 29.6516L48.5893 29.6482L47.092 30.9741ZM47.0888 30.9706L48.5862 29.6447L48.5859 29.6444L47.0888 30.9706ZM45.6098 29.4693L44.2051 30.893L44.2251 30.9127L44.2457 30.9319L45.6098 29.4693ZM45.2968 29.1806L43.9511 30.6601L43.9682 30.6757L43.9857 30.6909L45.2968 29.1806ZM44.3341 28.3476L43.079 29.9048L43.0791 29.9048L44.3341 28.3476ZM44.3164 28.3334L45.5715 26.7762L45.5538 26.7619L45.5357 26.7481L44.3164 28.3334ZM44.2984 28.3195L45.5177 26.7342L45.5177 26.7342L44.2984 28.3195ZM44.1609 28.2064L42.8699 29.7339L42.87 29.734L44.1609 28.2064ZM44.1547 28.2011L42.8636 29.7286L42.8636 29.7286L44.1547 28.2011ZM44.1075 28.1614H42.1075V29.0943L42.8224 29.6938L44.1075 28.1614ZM43.1389 24.6016L41.7105 26.0015V26.0015L43.1389 24.6016ZM37.5491 25.9603L37.0259 27.8907L38.8831 28.394L39.4578 26.5577L37.5491 25.9603ZM36.3952 25.6476L35.8679 27.5768L35.872 27.5779L36.3952 25.6476ZM33.9582 28.735L35.7172 27.7832L35.7125 27.7746L33.9582 28.735ZM33.9984 28.8094L34.3273 30.7821L37.0907 30.3215L35.7574 27.8575L33.9984 28.8094ZM32.5023 29.8L30.817 28.7231L30.8167 28.7237L32.5023 29.8ZM32.5011 29.802L34.1862 30.8792L34.1868 30.8783L32.5011 29.802ZM26.259 39.5669L24.5739 38.4898L24.5718 38.493L26.259 39.5669ZM26.1561 39.7286L27.8394 40.8086L27.8433 40.8026L26.1561 39.7286ZM26.0046 41.838L26.264 43.8212L28.9599 43.4686L27.8206 41L26.0046 41.838ZM50.9165 52.3069L49.4959 50.8991H49.4959L50.9165 52.3069ZM53.2427 49.1385L54.9403 50.1958L54.9403 50.1958L53.2427 49.1385ZM53.2973 49.0508L54.9947 50.1085L54.9947 50.1085L53.2973 49.0508ZM35.2336 32.5564L33.3554 33.2436L33.3554 33.2436L35.2336 32.5564ZM34.6919 31.1997L32.8557 31.9924L32.8559 31.9928L34.6919 31.1997ZM34.6914 31.1985L36.5276 30.4058L36.5274 30.4053L34.6914 31.1985ZM34.5622 30.9043L32.7346 31.7165L32.7358 31.7192L34.5622 30.9043ZM34.1875 30.8772L35.8726 31.9544L35.8739 31.9524L34.1875 30.8772ZM27.9441 40.6441L26.259 39.5669L26.2569 39.5702L27.9441 40.6441ZM27.8405 40.8069L29.5184 41.8953L29.5231 41.8881L29.5278 41.8808L27.8405 40.8069ZM34.6214 41.0412L36.2851 42.1512L36.2902 42.1435L36.2953 42.1357L34.6214 41.0412ZM34.8557 40.6441L33.1371 39.6211L33.1107 39.6655L33.0866 39.7112L34.8557 40.6441ZM36.0836 37.9589L38.0276 38.4288L38.0296 38.4208L38.0315 38.4127L36.0836 37.9589ZM35.3251 32.8109L33.439 33.4763L35.3251 32.8109ZM44.2084 46.0929C44.7451 46.0929 45.2656 45.8986 45.6713 45.5435L43.0364 42.5339C43.3632 42.2478 43.7801 42.0929 44.2084 42.0929V46.0929ZM45.0652 44.6682C44.9659 44.7524 44.8599 44.788 44.7508 44.788V48.788C45.8253 48.788 46.8437 48.4044 47.6518 47.7194L45.0652 44.6682ZM45.0557 44.6762L45.0436 44.6868L47.6734 47.7008L47.6856 47.6902L45.0557 44.6762ZM46.5107 43.2438C45.8054 44.0228 45.2081 44.5434 45.056 44.676L47.6853 47.6904C47.8851 47.5161 48.617 46.8772 49.476 45.9284L46.5107 43.2438ZM47.6087 42.5843C47.1461 42.7002 46.7787 42.951 46.518 43.2357L49.4686 45.9365C49.2622 46.162 48.9639 46.3685 48.5801 46.4646L47.6087 42.5843ZM57.6693 42.6209C57.6693 41.1566 56.2632 40.0783 54.8368 40.4934L55.9544 44.3341C54.7992 44.6703 53.6693 43.7991 53.6693 42.6209H57.6693ZM56.3377 46.2014C57.1192 45.8596 57.6693 45.0777 57.6693 44.1669H53.6693C53.6693 43.4336 54.1109 42.8096 54.7346 42.5368L56.3377 46.2014ZM56.2548 46.2374C56.2809 46.226 56.3041 46.2159 56.324 46.2074L54.7483 42.5308C54.7167 42.5444 54.6816 42.5596 54.6434 42.5764L56.2548 46.2374ZM55.9086 46.3983C56.0472 46.3307 56.1665 46.2763 56.2549 46.2374L54.6434 42.5764C54.514 42.6334 54.3464 42.7098 54.1543 42.8035L55.9086 46.3983ZM54.3341 47.46C54.3967 47.373 54.5785 47.1919 54.9259 46.957C55.2488 46.7387 55.608 46.545 55.9086 46.3983L54.1543 42.8035C53.7544 42.9987 53.2165 43.2843 52.6857 43.6432C52.1794 43.9855 51.5508 44.4791 51.0866 45.1248L54.3341 47.46ZM53.2973 49.0508C53.6691 48.4541 53.9971 47.9291 54.3346 47.4594L51.0861 45.1254C50.6582 45.721 50.2602 46.3612 49.9024 46.9354L53.2973 49.0508ZM46.6149 54.23C48.4849 54.23 49.8852 53.3476 50.9165 52.3069C51.8944 51.3201 52.6726 50.0533 53.2973 49.0508L49.9024 46.9354C49.2185 48.033 48.6766 48.8846 48.0754 49.4913C47.5276 50.044 47.0898 50.23 46.6149 50.23V54.23ZM34.1061 54.23H46.6149V50.23H34.1061V54.23ZM24.08 44.1768C24.08 49.7232 28.5616 54.23 34.1061 54.23V50.23C30.7835 50.23 28.08 47.5269 28.08 44.1768H24.08ZM24.08 44.0337V44.1768H28.08V44.0337H24.08ZM26.2945 41.8192C25.0719 41.8192 24.08 42.8105 24.08 44.0337H28.08C28.08 45.0203 27.2804 45.8192 26.2945 45.8192V41.8192ZM33.2677 41.8192H26.2945V45.8192H33.2677V41.8192ZM35.4864 44.264C35.5892 43.1316 34.7501 41.8192 33.2677 41.8192V45.8192C32.0615 45.8192 31.4245 44.7633 31.5028 43.9021L35.4864 44.264ZM35.5262 44.5152C35.486 44.4363 35.476 44.3626 35.4828 44.2993L31.5063 43.8669C31.4145 44.711 31.5721 45.5644 31.961 46.3289L35.5262 44.5152ZM35.9431 44.788C35.7697 44.788 35.6117 44.6884 35.5376 44.538L31.9495 46.306C32.7041 47.8373 34.2622 48.788 35.9431 48.788V44.788ZM34.1719 42.5932C33.1456 44.045 34.1657 46.0929 35.9825 46.0929V42.0929C37.4493 42.0929 38.2622 43.7365 37.4381 44.9022L34.1719 42.5932ZM34.2201 42.5208C34.1994 42.551 34.1644 42.6021 34.1296 42.6555L37.4804 44.84C37.4868 44.8302 37.4961 44.8165 37.5219 44.7787L34.2201 42.5208ZM34.2642 42.4559C34.2521 42.474 34.2393 42.4927 34.2201 42.5208L37.5218 44.7788C37.5395 44.753 37.5652 44.7154 37.5924 44.6747L34.2642 42.4559ZM34.3402 42.3463C34.324 42.3696 34.3083 42.392 34.2932 42.4135L37.5633 44.717C37.5836 44.6883 37.6041 44.659 37.6248 44.6291L34.3402 42.3463ZM35.0581 41.2337C34.7868 41.6817 34.5345 42.0667 34.3402 42.3463L37.6248 44.6291C37.8702 44.2761 38.1679 43.8205 38.4797 43.3055L35.0581 41.2337ZM35.1563 41.0701C35.1234 41.1254 35.0906 41.18 35.0581 41.2337L38.4797 43.3056C38.5175 43.2432 38.5555 43.1799 38.5936 43.1158L35.1563 41.0701ZM35.43 40.5984C35.3387 40.7601 35.247 40.9178 35.1563 41.0701L38.5936 43.1158C38.6987 42.9393 38.8053 42.7558 38.9121 42.5671L35.43 40.5984ZM36.185 39.096C35.9833 39.5808 35.7225 40.0871 35.435 40.5897L38.9071 42.5759C39.2458 41.9837 39.5917 41.3211 39.8782 40.6323L36.185 39.096ZM36.2761 38.8709C36.2567 38.9233 36.2452 38.9541 36.2343 38.9819C36.2242 39.0075 36.2193 39.0182 36.2183 39.0204L39.8449 40.7079C39.93 40.5249 39.9941 40.3493 40.0264 40.2622L36.2761 38.8709ZM36.2848 38.8477L36.2762 38.8706L40.0263 40.2624L40.0348 40.2394L36.2848 38.8477ZM36.3329 38.7144C36.3162 38.7603 36.2959 38.8158 36.2754 38.8736L40.0442 40.2135C40.0582 40.1742 40.0728 40.1344 40.0904 40.0861L36.3329 38.7144ZM36.4197 38.4635C36.4072 38.5079 36.3871 38.5659 36.3329 38.7144L40.0904 40.0861C40.1345 39.9652 40.2092 39.7636 40.2698 39.5486L36.4197 38.4635ZM36.5194 38.1204C36.4842 38.2519 36.4654 38.3195 36.4473 38.374L40.2423 39.6381C40.3046 39.451 40.3533 39.2669 40.3831 39.1557L36.5194 38.1204ZM36.5416 38.0377L36.5199 38.1185L40.3826 39.1576L40.4043 39.0768L36.5416 38.0377ZM36.6382 36.9841C36.6382 37.4144 36.5991 37.7855 36.525 38.104L40.4209 39.0105C40.5786 38.3329 40.6382 37.6486 40.6382 36.9841H36.6382ZM36.617 36.5138C36.6309 36.665 36.6382 36.8282 36.6382 36.9841H40.6382C40.6382 36.7109 40.6257 36.4254 40.6002 36.1475L36.617 36.5138ZM36.5553 35.8787C36.5867 36.1273 36.6046 36.2783 36.6104 36.4148L40.6068 36.2465C40.5928 35.9146 40.5515 35.5971 40.5238 35.3772L36.5553 35.8787ZM36.4764 35.3635C36.5175 35.587 36.5383 35.7097 36.5485 35.8176L40.5305 35.4383C40.5013 35.1319 40.4482 34.8452 40.4104 34.6397L36.4764 35.3635ZM36.3067 34.5534C36.3771 34.8327 36.4311 35.0801 36.4677 35.3129L40.419 34.6904C40.357 34.2968 40.2729 33.9229 40.1854 33.5758L36.3067 34.5534ZM36.2694 34.3926L36.2965 34.5109L40.1957 33.6183L40.1686 33.5L36.2694 34.3926ZM36.235 34.2701C36.2513 34.3315 36.2705 34.4037 36.2911 34.4783L40.1469 33.4142C40.1322 33.3608 40.1178 33.3067 40.1007 33.2425L36.235 34.2701ZM36.1377 33.9255C36.1678 34.0191 36.1939 34.1158 36.235 34.2701L40.1007 33.2425C40.0633 33.1017 40.012 32.9069 39.9452 32.6996L36.1377 33.9255ZM35.5194 32.0889C35.7372 32.6538 35.9428 33.2551 36.1202 33.8684L39.9626 32.7567C39.7506 32.0237 39.5073 31.3132 39.2517 30.6501L35.5194 32.0889ZM35.2597 31.4353C35.3614 31.677 35.4366 31.8571 35.4999 32.0361L39.2712 30.7029C39.1625 30.3954 39.0411 30.1085 38.9463 29.8833L35.2597 31.4353ZM35.2591 31.4341L35.2601 31.4364L38.9458 29.8822L38.9448 29.8798L35.2591 31.4341ZM34.9448 30.7142C35.0538 30.9563 35.1549 31.1816 35.2532 31.4197L38.9508 29.8942C38.8251 29.5896 38.6994 29.3101 38.5922 29.072L34.9448 30.7142ZM34.9381 30.6992C34.9402 30.704 34.9426 30.7093 34.9448 30.7142L38.5922 29.072C38.5899 29.0669 38.5878 29.0622 38.5854 29.0571L34.9381 30.6992ZM34.8471 30.4966C34.8774 30.5645 34.9083 30.633 34.9381 30.6992L38.5854 29.0571C38.5552 28.9899 38.5266 28.9264 38.4989 28.8643L34.8471 30.4966ZM34.7453 30.2888C34.788 30.3793 34.8336 30.4739 34.8843 30.5752L38.4617 28.7858C38.4271 28.7167 38.395 28.6502 38.3629 28.5821L34.7453 30.2888ZM34.6695 30.1262C34.6937 30.1788 34.7189 30.233 34.7453 30.2888L38.3629 28.5821C38.3428 28.5395 38.3227 28.4962 38.3016 28.4506L34.6695 30.1262ZM34.4918 29.7532C34.5488 29.8673 34.6079 29.9917 34.6668 30.1204L38.3043 28.4564C38.23 28.2941 38.1511 28.1277 38.07 27.9655L34.4918 29.7532ZM34.4369 29.6415C34.4475 29.6625 34.4539 29.675 34.4595 29.6865C34.4648 29.6971 34.467 29.7019 34.4676 29.7031L38.0942 28.0156C38.0585 27.9389 38.0229 27.869 38.0052 27.8339L34.4369 29.6415ZM34.2783 29.2983C34.341 29.4554 34.4138 29.596 34.4369 29.6415L38.0052 27.8339C37.9969 27.8177 37.9916 27.8071 37.9867 27.7973C37.9821 27.7881 37.9797 27.7831 37.9785 27.7808C37.9774 27.7785 37.9784 27.7804 37.9807 27.7856C37.983 27.7908 37.9872 27.8005 37.9926 27.8138L34.2783 29.2983ZM36.4024 25.6496C34.554 25.1381 33.0533 27.1145 33.9675 28.7519L37.46 26.8019C38.2559 28.2272 36.9524 29.9521 35.3357 29.5047L36.4024 25.6496ZM38.5149 26.2922H38.5075V30.2922H38.5149V26.2922ZM38.5215 28.2938C39.2812 26.4437 39.2809 26.4436 39.2807 26.4435C39.2806 26.4434 39.2804 26.4433 39.2802 26.4433C39.2799 26.4431 39.2795 26.443 39.2792 26.4429C39.2786 26.4426 39.2779 26.4423 39.2772 26.4421C39.2759 26.4415 39.2746 26.441 39.2732 26.4404C39.2705 26.4393 39.2677 26.4382 39.2649 26.4371C39.2592 26.4348 39.2532 26.4324 39.2469 26.43C39.2344 26.4251 39.2204 26.4198 39.2051 26.4142C39.1756 26.4035 39.1359 26.3898 39.0884 26.3757C39.0347 26.3598 38.8104 26.2922 38.5149 26.2922V30.2922C38.2222 30.2922 38.0012 30.2255 37.9501 30.2103C37.904 30.1966 37.8654 30.1833 37.8366 30.1729C37.8217 30.1674 37.8081 30.1623 37.7958 30.1575C37.7896 30.1551 37.7837 30.1527 37.7781 30.1505C37.7753 30.1494 37.7725 30.1482 37.7698 30.1471C37.7684 30.1466 37.7671 30.1461 37.7658 30.1455C37.7651 30.1452 37.7645 30.145 37.7638 30.1447C37.7635 30.1446 37.7631 30.1444 37.7628 30.1443C37.7627 30.1442 37.7624 30.1441 37.7623 30.1441C37.7621 30.144 37.7618 30.1439 38.5215 28.2938ZM39.0674 26.3697L39.0642 26.3688L37.9788 30.2188L37.9821 30.2197L39.0674 26.3697ZM39.4056 26.4632L39.0579 26.3671L37.9916 30.2223L38.3393 30.3185L39.4056 26.4632ZM39.8007 26.5753L39.4185 26.4669L38.3263 30.3149L38.7085 30.4233L39.8007 26.5753ZM39.9359 26.6133L39.7954 26.5738L38.7139 30.4249L38.8544 30.4643L39.9359 26.6133ZM37.6097 25.7836C37.4703 26.1558 37.3952 26.5568 37.3952 26.9706H41.3952C41.3952 27.0425 41.3819 27.1162 41.3556 27.1865L37.6097 25.7836ZM40.7514 23.5996C39.2993 23.5996 38.0825 24.521 37.6097 25.7836L41.3556 27.1865C41.2703 27.4141 41.0428 27.5996 40.7514 27.5996V23.5996ZM43.1389 24.6016C42.5304 23.9808 41.6802 23.5996 40.7514 23.5996V27.5996C40.5721 27.5996 40.4024 27.5242 40.2822 27.4015L43.1389 24.6016ZM44.1075 26.9706C44.1075 26.0391 43.7291 25.2038 43.1389 24.6016L40.2821 27.4014C40.1802 27.2974 40.1075 27.1427 40.1075 26.9706H44.1075ZM44.1075 29.2983V26.9706H40.1075V29.2983H44.1075ZM42.929 27.4516L42.6479 27.3727L41.5671 31.2239L41.8482 31.3028L42.929 27.4516ZM43.6514 27.8082C43.4008 27.6206 43.162 27.5268 43.0211 27.4798L41.7561 31.2745C41.6597 31.2424 41.4653 31.1683 41.2541 31.0102L43.6514 27.8082ZM43.7556 27.8872C43.7231 27.8624 43.6864 27.8344 43.6532 27.8095L41.2523 31.0089C41.2712 31.023 41.2949 31.0411 41.331 31.0686L43.7556 27.8872ZM43.9407 28.027C43.8724 27.9762 43.8124 27.9305 43.7555 27.8872L41.3311 31.0687C41.3874 31.1116 41.4636 31.1696 41.5516 31.2352L43.9407 28.027ZM44.1608 28.2063C44.1222 28.1737 44.0601 28.121 43.9955 28.0694L41.4968 31.1929C41.5117 31.2048 41.5315 31.2214 41.5792 31.2617L44.1608 28.2063ZM44.2984 28.3195C44.2634 28.2926 44.228 28.2631 44.1609 28.2064L41.5791 31.2616C41.6397 31.3128 41.7416 31.3993 41.8597 31.4902L44.2984 28.3195ZM45.316 29.1981C44.9667 28.8799 44.6309 28.5869 44.3341 28.3476L41.824 31.462C42.0351 31.6322 42.3059 31.8669 42.6223 32.1552L45.316 29.1981ZM45.6378 29.4972C45.5157 29.3749 45.3912 29.2619 45.2748 29.1616L42.6635 32.1916C42.7247 32.2443 42.7729 32.289 42.8085 32.3247L45.6378 29.4972ZM47.0888 30.9706C46.5703 30.3852 46.0379 29.8678 45.5859 29.447L42.8604 32.3748C43.2665 32.7528 43.6957 33.1725 44.0946 33.6228L47.0888 30.9706ZM47.5164 31.4724C47.3762 31.3024 47.2363 31.1378 47.092 30.9741L44.0914 33.6192C44.2035 33.7464 44.3152 33.8777 44.4313 34.0184L47.5164 31.4724ZM47.6478 31.6314C47.6003 31.5744 47.5622 31.5286 47.5261 31.4843L44.4216 34.0066C44.4762 34.0738 44.5306 34.139 44.5753 34.1926L47.6478 31.6314ZM47.947 32.002C47.8392 31.8605 47.7265 31.7258 47.6478 31.6314L44.5753 34.1926C44.6651 34.3003 44.7199 34.3666 44.7651 34.4259L47.947 32.002ZM48.0378 32.1224C48.0083 32.0833 47.9817 32.0482 47.9559 32.0138L44.7562 34.4141C44.7873 34.4556 44.8185 34.4968 44.847 34.5346L48.0378 32.1224ZM48.5027 32.772C48.338 32.518 48.1599 32.2838 48.0377 32.1223L44.8471 34.5347C44.9841 34.7159 45.0735 34.8355 45.1463 34.9479L48.5027 32.772ZM48.5685 32.8692C48.5342 32.8191 48.5156 32.7918 48.5004 32.7684L45.1487 34.9516C45.1935 35.0203 45.2386 35.0861 45.2681 35.1291L48.5685 32.8692ZM48.7326 33.1165C48.6702 33.0173 48.6057 32.9235 48.5685 32.8692L45.2681 35.1291C45.314 35.1961 45.3326 35.2238 45.3456 35.2445L48.7326 33.1165ZM49.3109 34.1035C49.1428 33.7911 48.9444 33.4362 48.7078 33.078L45.3704 35.283C45.5085 35.492 45.6405 35.7239 45.7881 35.9983L49.3109 34.1035ZM49.597 34.7268C49.5134 34.5211 49.4221 34.3269 49.3449 34.1698L45.7541 35.9321C45.8101 36.0461 45.8568 36.1479 45.8915 36.2332L49.597 34.7268ZM50.0986 36.2372C49.9762 35.6865 49.7912 35.1588 49.5704 34.6644L45.9181 36.2956C46.0475 36.5852 46.1387 36.8565 46.1938 37.1047L50.0986 36.2372ZM50.1892 36.7011C50.1648 36.4935 50.1189 36.2771 50.054 36.0708L46.2384 37.2711C46.2318 37.2504 46.2279 37.2345 46.2253 37.2221C46.2227 37.21 46.2195 37.1927 46.2166 37.1686L50.1892 36.7011ZM50.2029 36.9545V36.9348H46.2029V36.9545H50.2029ZM50.2463 37.1734C50.2388 37.0756 50.2206 36.7796 50.1434 36.4702L46.2624 37.4387C46.2561 37.4133 46.2525 37.3942 46.2506 37.3835C46.2488 37.3729 46.2484 37.3686 46.2489 37.3728C46.2494 37.3773 46.2505 37.3871 46.2521 37.4058C46.2539 37.4254 46.2556 37.4472 46.2581 37.4803L50.2463 37.1734ZM50.1383 38.9786C50.2727 38.355 50.3012 37.7383 50.243 37.1349L46.2615 37.5188C46.2822 37.7339 46.2712 37.9359 46.2281 38.1359L50.1383 38.9786ZM49.9323 39.7132C50.0058 39.4959 50.0809 39.2501 50.14 38.9709L46.2264 38.1436C46.2114 38.2146 46.188 38.2991 46.1431 38.432L49.9323 39.7132ZM49.9042 39.7936L49.9243 39.7365L46.1511 38.4088L46.131 38.4659L49.9042 39.7936ZM49.6582 40.4202C49.7728 40.1724 49.8573 39.9272 49.9046 39.7926L46.1307 38.4669C46.0726 38.6322 46.0487 38.6956 46.0277 38.7409L49.6582 40.4202ZM48.9925 41.6722C49.272 41.2397 49.4971 40.7949 49.6792 40.3732L46.0067 38.7879C45.8929 39.0517 45.7678 39.2924 45.633 39.501L48.9925 41.6722ZM48.7522 42.0588C48.8504 41.9116 48.9579 41.7414 49.056 41.567L45.5695 39.6062C45.5345 39.6685 45.4842 39.7498 45.4245 39.8393L48.7522 42.0588ZM48.587 42.294C48.6273 42.2377 48.6819 42.1616 48.7375 42.0806L45.4393 39.8175C45.4102 39.8598 45.379 39.9035 45.3352 39.9646L48.587 42.294ZM48.4874 42.435C48.5119 42.399 48.5407 42.3586 48.587 42.294L45.3352 39.9647C45.2942 40.0219 45.2372 40.1013 45.1814 40.1833L48.4874 42.435ZM48.0102 43.052C48.1827 42.8507 48.3379 42.6409 48.4473 42.4917L45.2215 40.1265C45.114 40.2732 45.0373 40.374 44.9731 40.4489L48.0102 43.052ZM47.6284 43.5262C47.8336 43.3039 48.0023 43.0734 48.108 42.9283L44.8754 40.5725C44.769 40.7185 44.7206 40.779 44.6891 40.8131L47.6284 43.5262ZM47.1347 44.0894C47.3353 43.8738 47.5206 43.6561 47.6841 43.4632L44.6334 40.8761C44.4666 41.0728 44.3363 41.2249 44.2065 41.3644L47.1347 44.0894ZM46.755 44.4978C46.9252 44.3315 47.0757 44.1618 47.1938 44.023L44.1473 41.4308C44.0683 41.5238 44.0066 41.5908 43.9598 41.6365L46.755 44.4978ZM46.4983 44.7646C46.5804 44.6829 46.7125 44.5519 46.847 44.4017L43.8678 41.7326C43.8202 41.7858 43.7665 41.8399 43.6748 41.9313L46.4983 44.7646ZM46.4568 44.806L46.4991 44.7639L43.674 41.9321L43.6317 41.9743L46.4568 44.806ZM45.9751 45.2653C46.1017 45.1494 46.2639 44.999 46.4585 44.8044L43.6301 41.976C43.4942 42.1118 43.3802 42.2178 43.2751 42.314L45.9751 45.2653ZM45.7065 45.5119L45.9778 45.2628L43.2724 42.3165L43.0011 42.5655L45.7065 45.5119ZM54.2813 38.5721L48.026 40.3804L49.1369 44.2231L55.3922 42.4147L54.2813 38.5721ZM54.2809 38.5722L54.2781 38.573L55.3954 42.4138L55.3983 42.413L54.2809 38.5722ZM59.6693 42.6209C59.6693 39.8419 57.0031 37.7845 54.2837 38.5714L55.3955 42.4138C55.4392 42.4011 55.4699 42.4024 55.4938 42.4071C55.5211 42.4126 55.5519 42.4254 55.5816 42.4479C55.641 42.4929 55.6693 42.5517 55.6693 42.6209H59.6693ZM59.6693 44.1669V42.6209H55.6693V44.1669H59.6693ZM57.1393 48.0338C58.62 47.386 59.6693 45.9032 59.6693 44.1669H55.6693C55.6693 44.2521 55.6184 44.3331 55.5362 44.3691L57.1393 48.0338ZM57.1321 48.037L57.1389 48.034L55.5366 44.3689L55.5298 44.3719L57.1321 48.037ZM57.1121 48.0456L57.119 48.0426L55.5428 44.3662L55.536 44.3692L57.1121 48.0456ZM56.2549 48.4815C56.6026 48.2733 56.9581 48.1116 57.1119 48.0456L55.5362 44.3691C55.2947 44.4726 54.7602 44.7143 54.2 45.0497L56.2549 48.4815ZM55.9571 48.6288C55.9204 48.6798 55.8902 48.715 55.874 48.7332C55.8567 48.7526 55.8452 48.764 55.842 48.7671C55.8362 48.7728 55.8474 48.7614 55.881 48.7344C55.9481 48.6806 56.0701 48.5921 56.2549 48.4815L54.2 45.0497C53.6453 45.3818 53.0574 45.8108 52.7117 46.2905L55.9571 48.6288ZM50.2076 43.4661C50.2092 43.4638 50.2109 43.4614 50.2128 43.4587L46.961 41.1295C46.9592 41.132 46.9572 41.1347 46.9553 41.1374L50.2076 43.4661ZM50.213 43.4585L50.2169 43.4531L46.9647 41.1243L46.9608 41.1297L50.213 43.4585ZM50.2167 43.4534C50.2558 43.3988 50.3198 43.3095 50.3866 43.2122L47.0884 40.9491C47.0475 41.0087 47.0056 41.0672 46.9649 41.124L50.2167 43.4534ZM50.3866 43.2122L50.3941 43.2013L47.0958 40.9382L47.0884 40.9491L50.3866 43.2122ZM50.4088 43.1796L50.4161 43.1686L47.0884 40.949L47.0811 40.96L50.4088 43.1796ZM50.4161 43.1685C50.5216 43.0104 50.6414 42.8222 50.7578 42.6201L47.2918 40.6234C47.2295 40.7315 47.1586 40.8437 47.0884 40.949L50.4161 43.1685ZM50.713 42.6941C51.0395 42.18 51.2984 41.6654 51.5044 41.1911L47.8355 39.5976C47.695 39.9213 47.5301 40.2448 47.3366 40.5494L50.713 42.6941ZM51.4907 41.2221C51.6347 40.9054 51.7381 40.6077 51.7844 40.4757L48.0098 39.1519C47.9628 39.2862 47.9112 39.4306 47.8493 39.5666L51.4907 41.2221ZM51.7844 40.4759L51.7918 40.4546L48.0174 39.1305L48.0099 39.1517L51.7844 40.4759ZM51.7912 40.4563L51.8103 40.4023L48.037 39.0747L48.018 39.1288L51.7912 40.4563ZM51.8094 40.4046L51.8139 40.392L48.0423 39.0598L48.0378 39.0724L51.8094 40.4046ZM51.8228 40.3662L51.8271 40.3535L48.0376 39.0729L48.0333 39.0855L51.8228 40.3662ZM51.827 40.3538C51.9144 40.0953 52.0148 39.7706 52.0956 39.3897L48.1827 38.5596C48.1457 38.734 48.0966 38.8985 48.0377 39.0726L51.827 40.3538ZM52.0946 39.3947C52.2714 38.5716 52.3096 37.7595 52.2366 36.9728L48.2537 37.3423C48.2911 37.7455 48.2709 38.1489 48.1838 38.5546L52.0946 39.3947ZM50.2451 37.1575C52.2396 37.0085 52.2396 37.0085 52.2396 37.0085V37.0085C52.2396 37.0085 52.2396 37.0085 52.2396 37.0085V37.0085C52.2396 37.0085 52.2396 37.0085 52.2396 37.0085C52.2396 37.0085 52.2396 37.0085 52.2396 37.0085C52.2396 37.0085 52.2396 37.0084 52.2396 37.0084C52.2396 37.0083 52.2395 37.0082 52.2395 37.008C52.2395 37.0077 52.2395 37.0072 52.2394 37.0067C52.2394 37.0062 52.2394 37.0056 52.2393 37.0052C52.2393 37.0049 52.2393 37.0047 52.2393 37.0046C52.2393 37.0044 52.2393 37.0044 52.2393 37.0044L48.2501 37.2989C48.2502 37.3007 48.2504 37.3028 48.2505 37.304C48.2506 37.3047 48.2506 37.3054 48.2506 37.3058C48.2506 37.306 48.2507 37.3062 48.2507 37.3064C48.2507 37.3064 48.2507 37.3065 48.2507 37.3065C48.2507 37.3065 48.2507 37.3066 48.2507 37.3066C48.2507 37.3066 48.2507 37.3066 48.2507 37.3066C48.2507 37.3066 48.2507 37.3066 48.2507 37.3066C48.2507 37.3066 48.2507 37.3066 48.2507 37.3066C48.2507 37.3066 48.2507 37.3066 48.2507 37.3066C48.2507 37.3066 48.2507 37.3066 50.2451 37.1575ZM52.2392 37.0036C52.2317 36.9031 52.2115 36.6206 52.1496 36.2885L48.2174 37.0218C48.2363 37.1234 48.2443 37.2203 48.2502 37.2997L52.2392 37.0036ZM52.1663 36.3933C52.1323 36.1359 52.0787 35.8754 52.0068 35.6212L48.1577 36.7095C48.1774 36.7791 48.192 36.8509 48.2007 36.917L52.1663 36.3933ZM52.0301 35.7118C51.878 35.0585 51.6609 34.4461 51.4127 33.8852L47.7548 35.5037C47.9173 35.871 48.0472 36.2448 48.1343 36.6189L52.0301 35.7118ZM51.4325 33.9313C51.3299 33.6828 51.2237 33.4584 51.1404 33.2886L47.5495 35.0509C47.6123 35.179 47.6778 35.3187 47.7351 35.4575L51.4325 33.9313ZM51.1404 33.2886L51.1239 33.2551L47.5331 35.0175L47.5495 35.051L51.1404 33.2886ZM51.0899 33.1889L51.0722 33.1561L47.5495 35.0509L47.5671 35.0837L51.0899 33.1889ZM51.0722 33.1561C50.8967 32.8298 50.6698 32.4216 50.3905 31.9968L47.0481 34.1942C47.232 34.4739 47.3944 34.7626 47.5495 35.0509L51.0722 33.1561ZM50.4069 32.0222C50.3315 31.9037 50.2588 31.7978 50.2244 31.7475L46.9244 34.0081C46.96 34.06 46.9972 34.1146 47.0317 34.1688L50.4069 32.0222ZM50.2244 31.7476L50.2186 31.739L46.9185 33.9994L46.9244 34.008L50.2244 31.7476ZM50.2187 31.7393C50.2019 31.7146 50.1914 31.6993 50.1839 31.6882C50.1767 31.6775 50.1751 31.6751 50.1761 31.6765L46.8263 33.8626C46.8558 33.9079 46.8876 33.9543 46.9183 33.9991L50.2187 31.7393ZM50.1788 31.6808C49.9763 31.3687 49.7648 31.0903 49.6466 30.934L46.4564 33.347C46.5805 33.511 46.7095 33.6828 46.8235 33.8583L50.1788 31.6808ZM49.6468 30.9342L49.6332 30.9163L46.4427 33.3289L46.4562 33.3468L49.6468 30.9342ZM49.6333 30.9164C49.6033 30.8767 49.579 30.8445 49.5558 30.8136L46.3561 33.214C46.3846 33.252 46.4135 33.2903 46.4427 33.3288L49.6333 30.9164ZM49.5559 30.8137L49.5515 30.8078L46.3515 33.2079L46.356 33.2138L49.5559 30.8137ZM49.5424 30.7958L49.5379 30.7899L46.3562 33.2141L46.3607 33.22L49.5424 30.7958ZM49.538 30.7901C49.4041 30.6143 49.2692 30.4529 49.1934 30.362L46.1212 32.9235C46.2017 33.0202 46.2829 33.1179 46.3561 33.214L49.538 30.7901ZM49.1933 30.3619L49.1839 30.3506L46.1118 32.9122L46.1212 32.9236L49.1933 30.3619ZM49.1841 30.3508C49.1351 30.292 49.1051 30.256 49.0784 30.2231L45.9739 32.7454C46.0193 32.8013 46.0656 32.8569 46.1116 32.9121L49.1841 30.3508ZM49.0783 30.223L49.0735 30.2171L45.9691 32.7396L45.974 32.7455L49.0783 30.223ZM49.064 30.2055L49.0591 30.1996L45.9737 32.7452L45.9786 32.7511L49.064 30.2055ZM49.059 30.1994C48.9067 30.0148 48.7526 29.8335 48.5923 29.6516L45.5917 32.2966C45.7199 32.4421 45.8457 32.5901 45.9739 32.7454L49.059 30.1994ZM48.5893 29.6482L48.5862 29.6447L45.5915 32.2964L45.5946 32.3L48.5893 29.6482ZM48.5859 29.6444C48.0177 29.0029 47.4442 28.4453 46.9738 28.0066L44.2457 30.9319C44.6691 31.3268 45.1411 31.788 45.5917 32.2967L48.5859 29.6444ZM47.0144 28.0455C46.8726 27.9057 46.7338 27.7796 46.6079 27.6703L43.9857 30.6909C44.0618 30.757 44.1361 30.8249 44.2051 30.893L47.0144 28.0455ZM46.6425 27.7011C46.2836 27.3746 45.9227 27.0593 45.5891 26.7904L43.0791 29.9048C43.3283 30.1057 43.6251 30.3636 43.9511 30.6601L46.6425 27.7011ZM45.5892 26.7905L45.5715 26.7762L43.0613 29.8905L43.079 29.9048L45.5892 26.7905ZM45.5357 26.7481L45.5177 26.7342L43.0791 29.9048L43.0971 29.9187L45.5357 26.7481ZM45.5177 26.7342C45.5232 26.7384 45.5241 26.7394 45.5146 26.7315C45.503 26.7219 45.4853 26.7071 45.4518 26.6788L42.87 29.734C42.932 29.7864 43.0018 29.8455 43.0791 29.9049L45.5177 26.7342ZM45.4519 26.6789L45.4457 26.6736L42.8636 29.7286L42.8699 29.7339L45.4519 26.6789ZM45.4457 26.6736C45.4323 26.6623 45.4136 26.6465 45.3927 26.629L42.8224 29.6938C42.8367 29.7059 42.85 29.7171 42.8636 29.7286L45.4457 26.6736ZM46.1075 28.1614V26.9706H42.1075V28.1614H46.1075ZM46.1075 26.9706C46.1075 25.4863 45.5028 24.1563 44.5672 23.2017L41.7105 26.0015C41.9553 26.2513 42.1075 26.5918 42.1075 26.9706H46.1075ZM44.5672 23.2017C43.5948 22.2095 42.2348 21.5996 40.7514 21.5996V25.5996C41.1255 25.5996 41.466 25.752 41.7105 26.0015L44.5672 23.2017ZM40.7514 21.5996C38.3191 21.5996 36.3144 23.2092 35.6404 25.363L39.4578 26.5577C39.6338 25.9953 40.1481 25.5996 40.7514 25.5996V21.5996ZM38.0723 24.03L36.9184 23.7172L35.872 27.5779L37.0259 27.8907L38.0723 24.03ZM36.9225 23.7183C33.3369 22.7384 30.4852 26.5561 32.2039 29.6955L35.7125 27.7746C35.6984 27.7489 35.6946 27.7332 35.6933 27.7266C35.6918 27.7194 35.6915 27.7124 35.6924 27.7042C35.6944 27.6852 35.7042 27.6529 35.7302 27.6196C35.7558 27.5867 35.7805 27.5738 35.7904 27.5703C35.7946 27.5688 35.799 27.5677 35.8061 27.5674C35.8127 27.5672 35.8323 27.5671 35.8679 27.5768L36.9225 23.7183ZM32.1992 29.6869L32.2394 29.7612L35.7574 27.8575L35.7172 27.7832L32.1992 29.6869ZM33.6696 26.8366C32.5609 27.0214 31.5007 27.6532 30.817 28.7231L34.1877 30.8769C34.2116 30.8395 34.2334 30.8214 34.2501 30.8106C34.269 30.7984 34.2946 30.7876 34.3273 30.7821L33.6696 26.8366ZM30.8167 28.7237L30.8154 28.7257L34.1868 30.8783L34.188 30.8763L30.8167 28.7237ZM30.816 28.7248L24.5739 38.4898L27.9441 40.6441L34.1862 30.8792L30.816 28.7248ZM24.4727 38.6486C23.6358 39.9531 23.6277 41.4605 24.1887 42.6761L27.8206 41C27.8036 40.9631 27.7996 40.9318 27.8007 40.9096C27.8016 40.893 27.8058 40.861 27.8394 40.8086L24.4727 38.6486ZM25.7453 39.8549C23.6771 40.1254 22.08 41.891 22.08 44.0337H26.08C26.08 43.9266 26.1606 43.8347 26.264 43.8212L25.7453 39.8549ZM22.08 44.0337V44.1768H26.08V44.0337H22.08ZM22.08 44.1768C22.08 50.821 27.4503 56.23 34.1061 56.23V52.23C29.673 52.23 26.08 48.6254 26.08 44.1768H22.08ZM34.1061 56.23H46.6149V52.23H34.1061V56.23ZM46.6149 56.23C49.1848 56.23 51.0662 54.9972 52.3371 53.7147L49.4959 50.8991C48.7041 51.6981 47.7849 52.23 46.6149 52.23V56.23ZM52.3371 53.7147C53.4713 52.5702 54.3455 51.1509 54.9403 50.1958L51.545 48.0812C50.9093 49.1019 50.2609 50.1272 49.4959 50.8991L52.3371 53.7147ZM54.9403 50.1958C54.9587 50.1663 54.9768 50.1373 54.9947 50.1085L51.5998 47.9931C51.5816 48.0223 51.5633 48.0518 51.545 48.0812L54.9403 50.1958ZM54.9947 50.1085C55.3737 49.5003 55.6667 49.0331 55.9587 48.6265L52.7101 46.2928C52.3275 46.8254 51.9642 47.4084 51.5998 47.9931L54.9947 50.1085ZM37.1118 31.8692C36.9287 31.3685 36.7314 30.8774 36.528 30.4066L32.8559 31.9928C33.0316 32.3994 33.2003 32.8198 33.3554 33.2436L37.1118 31.8692ZM36.5281 30.407L36.5276 30.4058L32.8553 31.9912L32.8557 31.9924L36.5281 30.407ZM36.5274 30.4053C36.4815 30.299 36.4352 30.1936 36.3887 30.0893L32.7358 31.7192C32.776 31.8092 32.8159 31.9001 32.8555 31.9917L36.5274 30.4053ZM36.3899 30.0921C35.6649 28.4605 33.4384 28.3319 32.5011 29.802L35.8739 31.9524C35.119 33.1364 33.3216 33.0375 32.7346 31.7165L36.3899 30.0921ZM26.2569 39.5702L26.1533 39.7329L29.5278 41.8808L29.6313 41.7181L26.2569 39.5702ZM26.1627 39.7184C25.1924 41.2141 26.2937 43.1349 28.023 43.1349V39.1349C29.4071 39.1349 30.3063 40.6808 29.5184 41.8953L26.1627 39.7184ZM34.4439 43.1349C35.1613 43.1349 35.8623 42.7849 36.2851 42.1512L32.9578 39.9311C33.3017 39.4157 33.8695 39.1349 34.4439 39.1349V43.1349ZM36.2953 42.1357C36.4115 41.958 36.5225 41.771 36.6248 41.577L33.0866 39.7112C33.0458 39.7886 32.999 39.8679 32.9476 39.9466L36.2953 42.1357ZM36.5742 41.6672C37.153 40.6949 37.7746 39.4756 38.0276 38.4288L34.1396 37.489C34.0327 37.9315 33.668 38.7293 33.1371 39.6211L36.5742 41.6672ZM38.0315 38.4127C38.2719 37.3809 38.2084 36.2666 38.0416 35.2565C37.8707 34.2214 37.5662 33.1519 37.2112 32.1456L33.439 33.4763C33.7424 34.3365 33.9733 35.171 34.0951 35.9083C34.2209 36.6704 34.2076 37.1969 34.1358 37.5051L38.0315 38.4127ZM37.2112 32.1456C37.1785 32.0531 37.1454 31.961 37.1118 31.8692L33.3554 33.2436C33.3837 33.3211 33.4116 33.3987 33.439 33.4763L37.2112 32.1456ZM44.4202 30.9982L44.4249 30.9927L41.3698 28.4108L41.3651 28.4163L44.4202 30.9982ZM42.1075 46.0929H44.2084V42.0929H42.1075V46.0929ZM44.1075 46.788V44.0929H40.1075V46.788H44.1075ZM44.7508 44.788H42.1075V48.788H44.7508V44.788ZM54.8401 40.4924L47.539 42.6031L48.6498 46.4458L55.951 44.3351L54.8401 40.4924ZM57.6693 44.1669V42.6209H53.6693V44.1669H57.6693ZM39.3952 44.788H35.9431V48.788H39.3952V44.788ZM37.3952 44.0929V46.788H41.3952V44.0929H37.3952ZM35.9825 46.0929H39.3952V42.0929H35.9825V46.0929ZM33.9548 28.7287L34.3764 29.5079L37.8944 27.6042L37.4727 26.825L33.9548 28.7287ZM38.114 26.1134L36.3923 25.6468L35.3459 29.5075L37.0676 29.9742L38.114 26.1134ZM39.0307 26.3619L38.114 26.1134L37.0676 29.9742L37.9843 30.2226L39.0307 26.3619ZM37.3952 26.9706V28.5388H41.3952V26.9706H37.3952ZM24.5718 38.493L24.4689 38.6547L27.8433 40.8026L27.9462 40.6409L24.5718 38.493ZM32.5023 29.8L26.259 39.5669L29.6292 41.7213L35.8726 31.9544L32.5023 29.8ZM28.023 43.1349H34.4439V39.1349H28.023V43.1349Z" fill="#2081E2" mask="url(#path-3-outside-1_805_882)"/>
</g>
<path d="M61 40C61 51.5972 51.5972 61 40 61C28.4028 61 19 51.5972 19 40C19 28.4028 28.4028 19 40 19C51.5998 19 61 28.4026 61 40ZM40 65C53.8064 65 65 53.8064 65 40C65 26.1937 53.8092 15 40 15C26.1936 15 15 26.1936 15 40C15 53.8064 26.1936 65 40 65Z" fill="white" stroke="#2081E2" stroke-width="2"/>
</g>
<defs>
<filter id="filter0_d_805_882" x="2" y="6" width="76" height="76" filterUnits="userSpaceOnUse" color-interpolation-filters="sRGB">
<feFlood flood-opacity="0" result="BackgroundImageFix"/>
<feColorMatrix in="SourceAlpha" type="matrix" values="0 0 0 0 0 0 0 0 0 0 0 0 0 0 0 0 0 0 127 0" result="hardAlpha"/>
<feOffset dy="4"/>
<feGaussianBlur stdDeviation="6"/>
<feComposite in2="hardAlpha" operator="out"/>
<feColorMatrix type="matrix" values="0 0 0 0 0.12549 0 0 0 0 0.505882 0 0 0 0 0.886275 0 0 0 1 0"/>
<feBlend mode="normal" in2="BackgroundImageFix" result="effect1_dropShadow_805_882"/>
<feBlend mode="normal" in="SourceGraphic" in2="effect1_dropShadow_805_882" result="shape"/>
</filter>
<filter id="filter1_d_805_882" x="10.08" y="13.5996" width="61.5894" height="58.6309" filterUnits="userSpaceOnUse" color-interpolation-filters="sRGB">
<feFlood flood-opacity="0" result="BackgroundImageFix"/>
<feColorMatrix in="SourceAlpha" type="matrix" values="0 0 0 0 0 0 0 0 0 0 0 0 0 0 0 0 0 0 127 0" result="hardAlpha"/>
<feOffset dy="4"/>
<feGaussianBlur stdDeviation="6"/>
<feComposite in2="hardAlpha" operator="out"/>
<feColorMatrix type="matrix" values="0 0 0 0 0.12549 0 0 0 0 0.505882 0 0 0 0 0.886275 0 0 0 1 0"/>
<feBlend mode="normal" in2="BackgroundImageFix" result="effect1_dropShadow_805_882"/>
<feBlend mode="normal" in="SourceGraphic" in2="effect1_dropShadow_805_882" result="shape"/>
</filter>
<clipPath id="clip0_805_882">
<rect width="80" height="80" fill="white"/>
</clipPath>
</defs>
</svg>
