<svg width="40" height="194" viewBox="0 0 40 194" fill="none" xmlns="http://www.w3.org/2000/svg">
<path d="M18 0H22V30C22 31.1046 21.1046 32 20 32C18.8954 32 18 31.1046 18 30V0Z" fill="#018BBC"/>
<path d="M20 69.35L18.55 68.03C13.4 63.36 10 60.27 10 56.5C10 53.41 12.42 51 15.5 51C17.24 51 18.91 51.81 20 53.08C21.09 51.81 22.76 51 24.5 51C27.58 51 30 53.41 30 56.5C30 60.27 26.6 63.36 21.45 68.03L20 69.35Z" fill="#ADB5BD"/>
<path d="M18 90C18 88.8954 18.8954 88 20 88C21.1046 88 22 88.8954 22 90V194H18V90Z" fill="#ADB5BD"/>
</svg>
