<svg width="82" height="80" viewBox="0 0 82 80" fill="none" xmlns="http://www.w3.org/2000/svg">
<g filter="url(#filter0_d_80_219)">
<mask id="path-1-outside-1_80_219" maskUnits="userSpaceOnUse" x="15.92" y="17.9263" width="52" height="43" fill="black">
<rect fill="white" x="15.92" y="17.9263" width="52" height="43"/>
<path fill-rule="evenodd" clip-rule="evenodd" d="M57.5071 30.5249C57.0024 30.9955 56.4682 31.4351 55.907 31.8409C55.9227 32.1925 55.9305 32.5518 55.9305 32.9034C55.9305 43.7448 47.6742 56.2503 32.5836 56.2503C29.6024 56.2518 26.6629 55.681 23.9201 54.5832C23.2542 54.3167 22.5999 54.0191 21.9594 53.6911C21.2904 53.3484 20.6364 52.9726 20 52.5643C20.6507 52.6435 21.3055 52.6837 21.9609 52.6847C22.7137 52.6858 23.462 52.6354 24.2011 52.5351C26.0956 52.2779 27.9292 51.6927 29.6197 50.8079C30.5079 50.3429 31.3567 49.7953 32.1539 49.169C31.2082 49.15 30.2788 48.9682 29.4048 48.6369C28.6965 48.3685 28.0245 48.0018 27.4096 47.5442C26.6796 47.0008 26.0493 46.3435 25.5403 45.6021C25.2253 45.1433 24.9567 44.6523 24.7396 44.1361C24.6475 43.9171 24.5646 43.6935 24.4914 43.4659C25.2159 43.6061 25.9537 43.6469 26.6847 43.589C27.1932 43.5488 27.6985 43.4608 28.1938 43.3253C26.9571 43.0764 25.8032 42.5475 24.8159 41.7892C24.6551 41.6658 24.4989 41.5363 24.3473 41.4009C24.0309 41.1183 23.7353 40.81 23.4639 40.4783C22.7478 39.6031 22.2257 38.5962 21.9212 37.5237C21.7215 36.8202 21.6154 36.0885 21.6096 35.3473C21.6094 35.3244 21.6094 35.3014 21.6094 35.2784V35.1768C21.6721 35.2115 21.7352 35.2454 21.7987 35.2784C22.3864 35.5839 23.0075 35.8164 23.6477 35.972C24.1963 36.1053 24.7591 36.1822 25.3273 36.2003C24.2974 35.5113 23.446 34.605 22.8254 33.5568C22.4003 32.8387 22.0835 32.0541 21.8917 31.2271C21.5919 29.9341 21.6122 28.5993 21.936 27.3344C22.1215 26.6095 22.4066 25.9075 22.7883 25.2495C23.24 25.8047 23.7162 26.3377 24.2151 26.8471C25.9927 28.6622 28.0585 30.1779 30.3333 31.3305C32.6249 32.4915 35.0882 33.2635 37.6227 33.6198C38.3103 33.7165 39.0031 33.7825 39.6992 33.8175C39.5455 33.1527 39.4762 32.4758 39.4896 31.8022C39.5118 30.6928 39.7586 29.5922 40.2231 28.5692C40.9697 26.9248 42.2372 25.5722 43.8296 24.7205C45.422 23.8687 47.2506 23.5653 49.0328 23.8571C50.815 24.1488 52.4514 25.0196 53.6891 26.3347C54.4444 26.1853 55.1869 25.9834 55.9115 25.7312C56.9492 25.37 57.9499 24.9054 58.8984 24.3432C58.6827 25.0105 58.3845 25.6423 58.0143 26.2257C57.7409 26.6564 57.4283 27.0607 57.0805 27.4335C56.5582 27.9933 55.9566 28.4818 55.2898 28.8815C55.7058 28.8332 56.1192 28.7688 56.5292 28.6886C57.4751 28.5035 58.403 28.2343 59.3015 27.8839C59.5364 27.7922 59.7693 27.6951 60 27.5925C59.2838 28.6649 58.4468 29.6485 57.5071 30.5249ZM60.7674 25.062L65.502 22.9555L61.6632 28.7033C60.6292 30.2514 59.3705 31.6345 57.9303 32.8078C57.9304 32.8397 57.9305 32.8716 57.9305 32.9034C57.9305 44.6046 49.0088 58.2497 32.5846 58.2503M60.7674 25.062C60.7789 25.0276 60.7902 24.9931 60.8014 24.9586L62.4286 19.9263L57.8788 22.6227C56.7514 23.2908 55.54 23.8022 54.2781 24.144C52.8763 22.9661 51.1773 22.1815 49.3559 21.8833C47.14 21.5205 44.8663 21.8978 42.8863 22.9569C40.9063 24.0159 39.3303 25.6978 38.402 27.7423C37.8501 28.9578 37.5454 30.2613 37.4954 31.5782C35.3213 31.2298 33.2096 30.5457 31.2372 29.5464C28.5739 28.197 26.224 26.303 24.3396 23.9872L22.5115 21.7405L21.0582 24.2461C19.7556 26.492 19.357 29.1496 19.9434 31.6789C19.9696 31.7917 19.9976 31.9039 20.0275 32.0155L19.6094 31.784V35.2778C19.6082 37.5645 20.3752 39.7836 21.7838 41.5798L22.5875 44.0783C23.2394 46.1049 24.5077 47.8775 26.2155 49.1486C26.5049 49.364 26.8044 49.5631 27.1128 49.7456C25.4792 50.365 23.7354 50.6875 21.9641 50.6847C21.3883 50.6838 20.813 50.6485 20.2415 50.579L18.92 54.2477C22.9971 56.8633 27.7397 58.2526 32.5836 58.2503"/>
</mask>
<path fill-rule="evenodd" clip-rule="evenodd" d="M57.5071 30.5249C57.0024 30.9955 56.4682 31.4351 55.907 31.8409C55.9227 32.1925 55.9305 32.5518 55.9305 32.9034C55.9305 43.7448 47.6742 56.2503 32.5836 56.2503C29.6024 56.2518 26.6629 55.681 23.9201 54.5832C23.2542 54.3167 22.5999 54.0191 21.9594 53.6911C21.2904 53.3484 20.6364 52.9726 20 52.5643C20.6507 52.6435 21.3055 52.6837 21.9609 52.6847C22.7137 52.6858 23.462 52.6354 24.2011 52.5351C26.0956 52.2779 27.9292 51.6927 29.6197 50.8079C30.5079 50.3429 31.3567 49.7953 32.1539 49.169C31.2082 49.15 30.2788 48.9682 29.4048 48.6369C28.6965 48.3685 28.0245 48.0018 27.4096 47.5442C26.6796 47.0008 26.0493 46.3435 25.5403 45.6021C25.2253 45.1433 24.9567 44.6523 24.7396 44.1361C24.6475 43.9171 24.5646 43.6935 24.4914 43.4659C25.2159 43.6061 25.9537 43.6469 26.6847 43.589C27.1932 43.5488 27.6985 43.4608 28.1938 43.3253C26.9571 43.0764 25.8032 42.5475 24.8159 41.7892C24.6551 41.6658 24.4989 41.5363 24.3473 41.4009C24.0309 41.1183 23.7353 40.81 23.4639 40.4783C22.7478 39.6031 22.2257 38.5962 21.9212 37.5237C21.7215 36.8202 21.6154 36.0885 21.6096 35.3473C21.6094 35.3244 21.6094 35.3014 21.6094 35.2784V35.1768C21.6721 35.2115 21.7352 35.2454 21.7987 35.2784C22.3864 35.5839 23.0075 35.8164 23.6477 35.972C24.1963 36.1053 24.7591 36.1822 25.3273 36.2003C24.2974 35.5113 23.446 34.605 22.8254 33.5568C22.4003 32.8387 22.0835 32.0541 21.8917 31.2271C21.5919 29.9341 21.6122 28.5993 21.936 27.3344C22.1215 26.6095 22.4066 25.9075 22.7883 25.2495C23.24 25.8047 23.7162 26.3377 24.2151 26.8471C25.9927 28.6622 28.0585 30.1779 30.3333 31.3305C32.6249 32.4915 35.0882 33.2635 37.6227 33.6198C38.3103 33.7165 39.0031 33.7825 39.6992 33.8175C39.5455 33.1527 39.4762 32.4758 39.4896 31.8022C39.5118 30.6928 39.7586 29.5922 40.2231 28.5692C40.9697 26.9248 42.2372 25.5722 43.8296 24.7205C45.422 23.8687 47.2506 23.5653 49.0328 23.8571C50.815 24.1488 52.4514 25.0196 53.6891 26.3347C54.4444 26.1853 55.1869 25.9834 55.9115 25.7312C56.9492 25.37 57.9499 24.9054 58.8984 24.3432C58.6827 25.0105 58.3845 25.6423 58.0143 26.2257C57.7409 26.6564 57.4283 27.0607 57.0805 27.4335C56.5582 27.9933 55.9566 28.4818 55.2898 28.8815C55.7058 28.8332 56.1192 28.7688 56.5292 28.6886C57.4751 28.5035 58.403 28.2343 59.3015 27.8839C59.5364 27.7922 59.7693 27.6951 60 27.5925C59.2838 28.6649 58.4468 29.6485 57.5071 30.5249ZM60.7674 25.062L65.502 22.9555L61.6632 28.7033C60.6292 30.2514 59.3705 31.6345 57.9303 32.8078C57.9304 32.8397 57.9305 32.8716 57.9305 32.9034C57.9305 44.6046 49.0088 58.2497 32.5846 58.2503M60.7674 25.062C60.7789 25.0276 60.7902 24.9931 60.8014 24.9586L62.4286 19.9263L57.8788 22.6227C56.7514 23.2908 55.54 23.8022 54.2781 24.144C52.8763 22.9661 51.1773 22.1815 49.3559 21.8833C47.14 21.5205 44.8663 21.8978 42.8863 22.9569C40.9063 24.0159 39.3303 25.6978 38.402 27.7423C37.8501 28.9578 37.5454 30.2613 37.4954 31.5782C35.3213 31.2298 33.2096 30.5457 31.2372 29.5464C28.5739 28.197 26.224 26.303 24.3396 23.9872L22.5115 21.7405L21.0582 24.2461C19.7556 26.492 19.357 29.1496 19.9434 31.6789C19.9696 31.7917 19.9976 31.9039 20.0275 32.0155L19.6094 31.784V35.2778C19.6082 37.5645 20.3752 39.7836 21.7838 41.5798L22.5875 44.0783C23.2394 46.1049 24.5077 47.8775 26.2155 49.1486C26.5049 49.364 26.8044 49.5631 27.1128 49.7456C25.4792 50.365 23.7354 50.6875 21.9641 50.6847C21.3883 50.6838 20.813 50.6485 20.2415 50.579L18.92 54.2477C22.9971 56.8633 27.7397 58.2526 32.5836 58.2503" fill="white"/>
<path d="M55.907 31.8409L54.735 30.2203C54.1895 30.6148 53.8791 31.2572 53.909 31.9297L55.907 31.8409ZM57.5071 30.5249L58.8711 31.9876V31.9876L57.5071 30.5249ZM32.5836 56.2503V54.2503H32.5826L32.5836 56.2503ZM23.9201 54.5832L23.1769 56.44L23.1769 56.44L23.9201 54.5832ZM21.9594 53.6911L21.0478 55.4712L21.0478 55.4712L21.9594 53.6911ZM20 52.5643L20.2415 50.579C19.3154 50.4663 18.4345 51.0089 18.1183 51.8866C17.8022 52.7643 18.1349 53.744 18.92 54.2477L20 52.5643ZM21.9609 52.6847L21.9641 50.6847H21.964L21.9609 52.6847ZM24.2011 52.5351L24.4702 54.5169H24.4702L24.2011 52.5351ZM29.6197 50.8079L30.5472 52.5798H30.5472L29.6197 50.8079ZM32.1539 49.169L33.3894 50.7418C34.0541 50.2197 34.3188 49.336 34.0506 48.5344C33.7824 47.7328 33.0392 47.1864 32.1941 47.1694L32.1539 49.169ZM29.4048 48.6369L28.6959 50.5071L28.6959 50.5071L29.4048 48.6369ZM27.4096 47.5442L28.6038 45.9398L27.4096 47.5442ZM25.5403 45.6021L27.1891 44.4701L25.5403 45.6021ZM24.7396 44.1361L26.5832 43.3607H26.5832L24.7396 44.1361ZM24.4914 43.4659L24.8714 41.5023C24.1773 41.368 23.4639 41.6101 22.9949 42.1391C22.5259 42.6681 22.371 43.4053 22.5875 44.0783L24.4914 43.4659ZM26.6847 43.589L26.8425 45.5828H26.8425L26.6847 43.589ZM28.1938 43.3253L28.7216 45.2544C29.6155 45.0098 30.2243 44.1831 30.1926 43.2569C30.1609 42.3306 29.497 41.5475 28.5884 41.3646L28.1938 43.3253ZM24.8159 41.7892L23.5976 43.3754L23.5976 43.3754L24.8159 41.7892ZM24.3473 41.4009L23.0149 42.8924L23.0149 42.8924L24.3473 41.4009ZM23.4639 40.4783L21.916 41.7448H21.916L23.4639 40.4783ZM21.9212 37.5237L23.8452 36.9775L21.9212 37.5237ZM21.6096 35.3473L23.6096 35.3318V35.3318L21.6096 35.3473ZM21.6094 35.2784L23.6094 35.2796V35.2784H21.6094ZM21.6094 35.1768L22.5778 33.427C21.9583 33.0841 21.2037 33.0943 20.5937 33.4539C19.9838 33.8135 19.6094 34.4688 19.6094 35.1768H21.6094ZM21.7987 35.2784L20.8763 37.053L20.8763 37.053L21.7987 35.2784ZM23.6477 35.972L24.12 34.0286H24.12L23.6477 35.972ZM25.3273 36.2003L25.2639 38.1993C26.1559 38.2276 26.9588 37.6614 27.2316 36.8116C27.5044 35.9618 27.1812 35.0341 26.4393 34.5379L25.3273 36.2003ZM22.8254 33.5568L24.5464 32.5379H24.5464L22.8254 33.5568ZM21.8917 31.2271L19.9434 31.6789H19.9434L21.8917 31.2271ZM21.936 27.3344L23.8735 27.8302L21.936 27.3344ZM22.7883 25.2495L24.3396 23.9872C23.9249 23.4775 23.2861 23.204 22.631 23.2557C21.9759 23.3074 21.3879 23.6776 21.0582 24.2461L22.7883 25.2495ZM24.2151 26.8471L25.644 25.4477H25.644L24.2151 26.8471ZM30.3333 31.3305L31.2372 29.5464L30.3333 31.3305ZM37.6227 33.6198L37.3442 35.6003H37.3442L37.6227 33.6198ZM39.6992 33.8175L39.599 35.815C40.2255 35.8464 40.8304 35.5821 41.233 35.1011C41.6355 34.6201 41.7891 33.978 41.6478 33.3669L39.6992 33.8175ZM39.4896 31.8022L37.49 31.7622V31.7622L39.4896 31.8022ZM40.2231 28.5692L42.0442 29.396V29.396L40.2231 28.5692ZM43.8296 24.7205L42.8863 22.9569V22.9569L43.8296 24.7205ZM53.6891 26.3347L52.2326 27.7053C52.7047 28.2069 53.4015 28.4303 54.0771 28.2966L53.6891 26.3347ZM55.9115 25.7312L55.254 23.8424V23.8424L55.9115 25.7312ZM58.8984 24.3432L60.8014 24.9586C61.0573 24.1673 60.7968 23.3002 60.1471 22.7809C59.4974 22.2617 58.5942 22.1987 57.8788 22.6227L58.8984 24.3432ZM58.0143 26.2257L59.7029 27.2973L59.7029 27.2973L58.0143 26.2257ZM57.0805 27.4335L58.5428 28.7979L58.5428 28.7979L57.0805 27.4335ZM55.2898 28.8815L54.2616 27.1661C53.4534 27.6506 53.093 28.6334 53.3964 29.5255C53.6998 30.4176 54.5847 30.9769 55.5206 30.8682L55.2898 28.8815ZM56.5292 28.6886L56.1453 26.7258L56.5292 28.6886ZM59.3015 27.8839L60.0282 29.7472V29.7472L59.3015 27.8839ZM60 27.5925L61.6632 28.7033C62.1577 27.9628 62.1032 26.9845 61.5293 26.3036C60.9555 25.6227 60.0006 25.4032 59.187 25.7652L60 27.5925ZM65.502 22.9555L67.1651 24.0663C67.6597 23.3258 67.6051 22.3476 67.0313 21.6667C66.4574 20.9858 65.5026 20.7663 64.689 21.1282L65.502 22.9555ZM60.7674 25.062L58.871 24.4264C58.619 25.1785 58.8352 26.0084 59.4221 26.542C60.009 27.0755 60.8557 27.2118 61.5804 26.8893L60.7674 25.062ZM61.6632 28.7033L60 27.5925V27.5925L61.6632 28.7033ZM57.9303 32.8078L56.6671 31.2572C56.1989 31.6387 55.9281 32.2113 55.9303 32.8152L57.9303 32.8078ZM60.8014 24.9586L62.7044 25.574L62.7044 25.5739L60.8014 24.9586ZM62.4286 19.9263L64.3316 20.5416C64.5875 19.7503 64.327 18.8832 63.6773 18.364C63.0276 17.8447 62.1245 17.7817 61.409 18.2057L62.4286 19.9263ZM57.8788 22.6227L58.8984 24.3432L58.8984 24.3432L57.8788 22.6227ZM54.2781 24.144L52.9914 25.6752C53.4929 26.0965 54.1688 26.2457 54.801 26.0744L54.2781 24.144ZM49.3559 21.8833L49.6791 19.9096V19.9096L49.3559 21.8833ZM42.8863 22.9569L41.943 21.1933V21.1933L42.8863 22.9569ZM38.402 27.7423L40.2231 28.5692V28.5692L38.402 27.7423ZM37.4954 31.5782L37.1788 33.553C37.7441 33.6436 38.3211 33.4877 38.7637 33.1246C39.2063 32.7616 39.4722 32.2263 39.4939 31.6542L37.4954 31.5782ZM31.2372 29.5464L32.1411 27.7623V27.7623L31.2372 29.5464ZM24.3396 23.9872L22.7883 25.2495H22.7883L24.3396 23.9872ZM22.5115 21.7405L24.0628 20.4782C23.6481 19.9684 23.0093 19.695 22.3542 19.7467C21.6991 19.7983 21.1111 20.1685 20.7814 20.737L22.5115 21.7405ZM21.0582 24.2461L19.3282 23.2426L21.0582 24.2461ZM19.9434 31.6789L17.9951 32.1306L17.9951 32.1306L19.9434 31.6789ZM20.0275 32.0155L19.059 33.7653C19.761 34.1538 20.6272 34.0853 21.2593 33.5911C21.8914 33.0969 22.167 32.2729 21.9594 31.4979L20.0275 32.0155ZM19.6094 31.784L20.5779 30.0342C19.9583 29.6913 19.2037 29.7016 18.5937 30.0611C17.9838 30.4207 17.6094 31.076 17.6094 31.784H19.6094ZM19.6094 35.2778L21.6094 35.2788V35.2778H19.6094ZM21.7838 41.5798L23.6877 40.9673C23.6153 40.7422 23.5035 40.5317 23.3575 40.3456L21.7838 41.5798ZM22.5875 44.0783L24.4914 43.4659L22.5875 44.0783ZM26.2155 49.1486L27.4096 47.5442L27.4096 47.5442L26.2155 49.1486ZM27.1128 49.7456L27.8218 51.6157C28.5404 51.3433 29.0394 50.6831 29.1054 49.9174C29.1714 49.1517 28.7928 48.4158 28.1314 48.0244L27.1128 49.7456ZM21.9641 50.6847L21.9673 48.6847H21.9672L21.9641 50.6847ZM20.2415 50.579L20.4829 48.5936C19.5569 48.481 18.6759 49.0235 18.3598 49.9012L20.2415 50.579ZM18.92 54.2477L17.0384 53.5699C16.7222 54.4476 17.0549 55.4273 17.8401 55.931L18.92 54.2477ZM57.079 33.4615C57.7075 33.007 58.3059 32.5146 58.8711 31.9876L56.1431 29.0622C55.699 29.4763 55.2288 29.8632 54.735 30.2203L57.079 33.4615ZM57.9305 32.9034C57.9305 32.5229 57.922 32.1339 57.9051 31.7521L53.909 31.9297C53.9233 32.2511 53.9305 32.5808 53.9305 32.9034H57.9305ZM32.5836 58.2503C49.0084 58.2503 57.9305 44.6048 57.9305 32.9034H53.9305C53.9305 42.8848 46.34 54.2503 32.5836 54.2503V58.2503ZM23.1769 56.44C26.1553 57.6321 29.3474 58.252 32.5846 58.2503L32.5826 54.2503C29.8575 54.2517 27.1705 53.7299 24.6633 52.7264L23.1769 56.44ZM21.0478 55.4712C21.7433 55.8274 22.4538 56.1506 23.1769 56.44L24.6633 52.7264C24.0546 52.4828 23.4565 52.2107 22.871 51.9109L21.0478 55.4712ZM18.92 54.2477C19.611 54.691 20.3212 55.0991 21.0478 55.4712L22.8711 51.9109C22.2595 51.5977 21.6617 51.2542 21.08 50.881L18.92 54.2477ZM21.964 50.6847C21.3882 50.6838 20.813 50.6485 20.2415 50.579L19.7585 54.5497C20.4883 54.6385 21.2227 54.6835 21.9579 54.6847L21.964 50.6847ZM23.9321 50.5533C23.2828 50.6414 22.6254 50.6857 21.9641 50.6847L21.9578 54.6847C22.8019 54.686 23.6413 54.6294 24.4702 54.5169L23.9321 50.5533ZM28.6922 49.0359C27.2072 49.8132 25.5963 50.3273 23.9321 50.5533L24.4702 54.5169C26.5949 54.2285 28.6513 53.5722 30.5472 52.5798L28.6922 49.0359ZM30.9185 47.5962C30.2181 48.1464 29.4725 48.6275 28.6922 49.0359L30.5472 52.5798C31.5434 52.0584 32.4953 51.4441 33.3894 50.7418L30.9185 47.5962ZM28.6959 50.5071C29.7826 50.9189 30.938 51.145 32.1137 51.1686L32.1941 47.1694C31.4784 47.1551 30.7751 47.0175 30.1136 46.7667L28.6959 50.5071ZM26.2155 49.1486C26.9799 49.7175 27.8154 50.1733 28.6959 50.5071L30.1136 46.7667C29.5776 46.5636 29.0691 46.2861 28.6038 45.9398L26.2155 49.1486ZM23.8915 46.7341C24.5243 47.6558 25.3078 48.473 26.2155 49.1486L28.6038 45.9398C28.0513 45.5286 27.5743 45.0312 27.1891 44.4701L23.8915 46.7341ZM22.8961 44.9115C23.166 45.5532 23.4999 46.1637 23.8915 46.7341L27.1891 44.4701C26.9507 44.1228 26.7475 43.7513 26.5832 43.3607L22.8961 44.9115ZM22.5875 44.0783C22.6785 44.3612 22.7815 44.6392 22.8961 44.9115L26.5832 43.3607C26.5135 43.1949 26.4507 43.0257 26.3953 42.8535L22.5875 44.0783ZM26.5269 41.5953C25.9751 41.6389 25.4182 41.6081 24.8714 41.5023L24.1115 45.4295C25.0136 45.604 25.9323 45.6548 26.8425 45.5828L26.5269 41.5953ZM27.6659 41.3962C27.2921 41.4985 26.9107 41.5649 26.5269 41.5953L26.8425 45.5828C27.4757 45.5327 28.1049 45.4231 28.7216 45.2544L27.6659 41.3962ZM23.5976 43.3754C24.8257 44.3185 26.2609 44.9763 27.7991 45.286L28.5884 41.3646C27.6533 41.1764 26.7808 40.7765 26.0341 40.203L23.5976 43.3754ZM23.0149 42.8924C23.2034 43.0608 23.3978 43.2219 23.5976 43.3754L26.0341 40.203C25.9125 40.1097 25.7944 40.0118 25.6798 39.9094L23.0149 42.8924ZM21.916 41.7448C22.2536 42.1574 22.6213 42.5408 23.0149 42.8924L25.6798 39.9094C25.4406 39.6957 25.2171 39.4627 25.0117 39.2117L21.916 41.7448ZM19.9972 38.0699C20.3759 39.4038 21.0253 40.6563 21.916 41.7448L25.0117 39.2117C24.4702 38.55 24.0754 37.7885 23.8452 36.9775L19.9972 38.0699ZM19.6097 35.3629C19.6169 36.2847 19.7488 37.1949 19.9972 38.0699L23.8452 36.9775C23.6941 36.4455 23.6139 35.8922 23.6096 35.3318L19.6097 35.3629ZM19.6094 35.2772C19.6094 35.3058 19.6095 35.3344 19.6097 35.3629L23.6096 35.3318C23.6094 35.3143 23.6094 35.2969 23.6094 35.2796L19.6094 35.2772ZM19.6094 35.1768V35.2784H23.6094V35.1768H19.6094ZM22.7211 33.5038C22.6731 33.4788 22.6253 33.4532 22.5778 33.427L20.6409 36.9267C20.7189 36.9699 20.7973 37.012 20.8763 37.053L22.7211 33.5038ZM24.12 34.0286C23.6357 33.9109 23.1657 33.7349 22.721 33.5038L20.8763 37.053C21.6071 37.4328 22.3793 37.722 23.1754 37.9154L24.12 34.0286ZM25.3908 34.2013C24.9609 34.1876 24.5351 34.1295 24.12 34.0286L23.1754 37.9154C23.8575 38.0812 24.5573 38.1768 25.2639 38.1993L25.3908 34.2013ZM21.1044 34.5757C21.876 35.879 22.9347 37.006 24.2154 37.8627L26.4393 34.5379C25.6601 34.0167 25.016 33.331 24.5464 32.5379L21.1044 34.5757ZM19.9434 31.6789C20.1818 32.7071 20.5758 33.6828 21.1044 34.5757L24.5464 32.5379C24.2248 31.9946 23.9851 31.4011 23.84 30.7754L19.9434 31.6789ZM19.9984 26.8385C19.5959 28.4112 19.5706 30.071 19.9434 31.6789L23.84 30.7754C23.6132 29.7972 23.6286 28.7874 23.8735 27.8302L19.9984 26.8385ZM21.0582 24.2461C20.5837 25.0642 20.2291 25.9371 19.9984 26.8385L23.8735 27.8302C24.0139 27.2818 24.2296 26.7508 24.5183 26.2529L21.0582 24.2461ZM25.644 25.4477C25.1879 24.982 24.7526 24.4947 24.3396 23.9872L21.237 26.5118C21.7274 27.1146 22.2445 27.6933 22.7862 28.2465L25.644 25.4477ZM31.2372 29.5464C29.1576 28.4927 27.269 27.107 25.644 25.4477L22.7862 28.2465C24.7163 30.2173 26.9594 31.8631 29.4294 33.1145L31.2372 29.5464ZM37.9011 31.6393C35.5841 31.3136 33.3321 30.6078 31.2372 29.5464L29.4294 33.1145C31.9176 34.3752 34.5923 35.2135 37.3442 35.6003L37.9011 31.6393ZM39.7995 31.82C39.1631 31.788 38.5297 31.7276 37.9011 31.6393L37.3442 35.6003C38.0909 35.7053 38.8432 35.777 39.599 35.815L39.7995 31.82ZM37.49 31.7622C37.4733 32.5998 37.5595 33.4415 37.7506 34.268L41.6478 33.3669C41.5315 32.8639 41.479 32.3518 41.4892 31.8421L37.49 31.7622ZM38.402 27.7423C37.8244 29.0144 37.5176 30.3829 37.49 31.7622L41.4892 31.8421C41.506 31.0027 41.6927 30.17 42.0442 29.396L38.402 27.7423ZM42.8863 22.9569C40.9063 24.0159 39.3303 25.6978 38.402 27.7423L42.0442 29.396C42.609 28.1519 43.568 27.1285 44.7729 26.484L42.8863 22.9569ZM49.3559 21.8833C47.14 21.5205 44.8663 21.8978 42.8863 22.9569L44.7729 26.484C45.9777 25.8396 47.3613 25.61 48.7097 25.8308L49.3559 21.8833ZM55.1455 24.964C53.6066 23.3288 51.5719 22.2461 49.3559 21.8833L48.7097 25.8308C50.0581 26.0515 51.2962 26.7103 52.2326 27.7053L55.1455 24.964ZM55.254 23.8424C54.6173 24.064 53.9647 24.2414 53.301 24.3727L54.0771 28.2966C54.924 28.1291 55.7566 27.9028 56.5691 27.62L55.254 23.8424ZM57.8788 22.6227C57.0453 23.1167 56.1658 23.5249 55.254 23.8424L56.5691 27.62C57.7325 27.215 58.8546 26.6941 59.9181 26.0638L57.8788 22.6227ZM59.7029 27.2973C60.1629 26.5725 60.5334 25.7875 60.8014 24.9586L56.9955 23.7279C56.832 24.2334 56.6061 24.712 56.3256 25.154L59.7029 27.2973ZM58.5428 28.7979C58.9749 28.3348 59.3633 27.8325 59.7029 27.2973L56.3256 25.154C56.1185 25.4803 55.8817 25.7867 55.6182 26.0691L58.5428 28.7979ZM56.3181 30.597C57.1465 30.1004 57.8939 29.4934 58.5428 28.7979L55.6182 26.0691C55.2225 26.4932 54.7668 26.8633 54.2616 27.1661L56.3181 30.597ZM56.1453 26.7258C55.7859 26.7961 55.4236 26.8525 55.0591 26.8949L55.5206 30.8682C55.988 30.8139 56.4525 30.7415 56.9132 30.6514L56.1453 26.7258ZM58.5749 26.0205C57.7874 26.3276 56.9742 26.5636 56.1453 26.7258L56.9132 30.6514C57.9761 30.4435 59.0185 30.1409 60.0282 29.7472L58.5749 26.0205ZM59.187 25.7652C58.9848 25.8551 58.7807 25.9402 58.5749 26.0205L60.0282 29.7472C60.2921 29.6443 60.5538 29.5351 60.813 29.4198L59.187 25.7652ZM58.8711 31.9876C59.9236 31.0061 60.861 29.9044 61.6632 28.7033L58.3368 26.4817C57.7066 27.4254 56.97 28.291 56.1431 29.0622L58.8711 31.9876ZM64.689 21.1282L59.9544 23.2347L61.5804 26.8893L66.315 24.7828L64.689 21.1282ZM63.3263 29.8141L67.1651 24.0663L63.8388 21.8447L60 27.5925L63.3263 29.8141ZM59.1935 34.3584C60.7881 33.0594 62.1816 31.5281 63.3263 29.8141L60 27.5925C59.0768 28.9747 57.953 30.2096 56.6671 31.2572L59.1935 34.3584ZM59.9305 32.9034C59.9305 32.8692 59.9304 32.8349 59.9303 32.8004L55.9303 32.8152C55.9304 32.8446 55.9305 32.874 55.9305 32.9034H59.9305ZM32.5847 60.2503C50.3482 60.2496 59.9305 45.4587 59.9305 32.9034H55.9305C55.9305 43.7505 47.6694 56.2497 32.5846 56.2503L32.5847 60.2503ZM62.6637 25.6976C62.6775 25.6563 62.6911 25.6151 62.7044 25.574L58.8985 24.3432C58.8894 24.3712 58.8803 24.399 58.871 24.4264L62.6637 25.6976ZM62.7044 25.5739L64.3316 20.5416L60.5257 19.3109L58.8984 24.3432L62.7044 25.5739ZM61.409 18.2057L56.8591 20.9021L58.8984 24.3432L63.4483 21.6468L61.409 18.2057ZM56.8591 20.9021C55.8873 21.4781 54.843 21.9189 53.7552 22.2136L54.801 26.0744C56.237 25.6855 57.6155 25.1035 58.8984 24.3432L56.8591 20.9021ZM55.5647 22.6128C53.8885 21.2043 51.857 20.2662 49.6791 19.9096L49.0328 23.8571C50.4976 24.0969 51.864 24.7278 52.9914 25.6752L55.5647 22.6128ZM49.6791 19.9096C47.0294 19.4758 44.3106 19.927 41.943 21.1933L43.8296 24.7205C45.422 23.8687 47.2506 23.5653 49.0328 23.8571L49.6791 19.9096ZM41.943 21.1933C39.5754 22.4597 37.6909 24.4707 36.5809 26.9155L40.2231 28.5692C40.9697 26.9248 42.2372 25.5722 43.8296 24.7205L41.943 21.1933ZM36.5809 26.9155C35.921 28.369 35.5567 29.9276 35.4968 31.5023L39.4939 31.6542C39.5342 30.595 39.7792 29.5467 40.2231 28.5692L36.5809 26.9155ZM37.8119 29.6035C35.8419 29.2877 33.9284 28.6678 32.1411 27.7623L30.3333 31.3305C32.4909 32.4236 34.8007 33.1719 37.1788 33.553L37.8119 29.6035ZM32.1411 27.7623C29.7278 26.5396 27.5984 24.8234 25.891 22.7249L22.7883 25.2495C24.8495 27.7827 27.42 29.8545 30.3333 31.3305L32.1411 27.7623ZM25.891 22.7249L24.0628 20.4782L20.9602 23.0027L22.7883 25.2495L25.891 22.7249ZM20.7814 20.737L19.3282 23.2426L22.7883 25.2495L24.2415 22.7439L20.7814 20.737ZM19.3282 23.2426C17.7705 25.9282 17.2938 29.1062 17.9951 32.1306L21.8917 31.2271C21.4201 29.193 21.7407 27.0557 22.7883 25.2495L19.3282 23.2426ZM17.9951 32.1306C18.0264 32.2655 18.0599 32.3997 18.0956 32.533L21.9594 31.4979C21.9353 31.4082 21.9128 31.3179 21.8917 31.2271L17.9951 32.1306ZM20.996 30.2656L20.5779 30.0342L18.6409 33.5339L19.059 33.7653L20.996 30.2656ZM17.6094 35.2768C17.608 38.0116 18.5252 40.6657 20.21 42.814L23.3575 40.3456C22.2251 38.9016 21.6085 37.1173 21.6094 35.2788L17.6094 35.2768ZM19.8799 42.1922L20.6836 44.6907L24.4914 43.4659L23.6877 40.9673L19.8799 42.1922ZM20.6836 44.6907C21.463 47.1139 22.9795 49.2332 25.0214 50.753L27.4096 47.5442C26.036 46.5218 25.0158 45.096 24.4914 43.4659L20.6836 44.6907ZM25.0214 50.753C25.3673 51.0105 25.7255 51.2486 26.0942 51.4668L28.1314 48.0244C27.8834 47.8777 27.6424 47.7175 27.4096 47.5442L25.0214 50.753ZM26.4038 47.8755C24.9961 48.4092 23.4936 48.6871 21.9673 48.6847L21.9609 52.6847C23.9773 52.6879 25.9623 52.3207 27.8218 51.6157L26.4038 47.8755ZM21.9672 48.6847C21.4711 48.6839 20.9754 48.6535 20.4829 48.5936L20 52.5643C20.6507 52.6435 21.3056 52.6837 21.9611 52.6847L21.9672 48.6847ZM18.3598 49.9012L17.0384 53.5699L20.8017 54.9254L22.1231 51.2567L18.3598 49.9012ZM17.8401 55.931C22.2396 58.7536 27.3575 60.2528 32.5846 60.2503L32.5826 56.2503C28.1219 56.2524 23.7545 54.973 20 52.5643L17.8401 55.931ZM17.6094 31.784V35.2778H21.6094V31.784H17.6094Z" fill="#1DA1F2" mask="url(#path-1-outside-1_80_219)"/>
</g>
<defs>
<filter id="filter0_d_80_219" x="2.9198" y="3.92627" width="78.5822" height="70.3242" filterUnits="userSpaceOnUse" color-interpolation-filters="sRGB">
<feFlood flood-opacity="0" result="BackgroundImageFix"/>
<feColorMatrix in="SourceAlpha" type="matrix" values="0 0 0 0 0 0 0 0 0 0 0 0 0 0 0 0 0 0 127 0" result="hardAlpha"/>
<feOffset/>
<feGaussianBlur stdDeviation="7"/>
<feComposite in2="hardAlpha" operator="out"/>
<feColorMatrix type="matrix" values="0 0 0 0 0.113725 0 0 0 0 0.631373 0 0 0 0 0.94902 0 0 0 0.2 0"/>
<feBlend mode="normal" in2="BackgroundImageFix" result="effect1_dropShadow_80_219"/>
<feBlend mode="normal" in="SourceGraphic" in2="effect1_dropShadow_80_219" result="shape"/>
</filter>
</defs>
</svg>
