<svg width="50" height="48" viewBox="0 0 50 48" fill="none" xmlns="http://www.w3.org/2000/svg">
<g filter="url(#filter0_d_1201_2437)">
<path d="M15.095 43.5014C33.2083 43.5014 43.1155 28.4947 43.1155 15.4809C43.1155 15.0547 43.1155 14.6304 43.0867 14.208C45.0141 12.8139 46.6778 11.0877 48 9.11036C46.2028 9.90716 44.2961 10.4295 42.3437 10.6598C44.3996 9.42918 45.9383 7.49336 46.6733 5.21276C44.7402 6.35997 42.6253 7.16841 40.4198 7.60316C38.935 6.02431 36.9712 4.97884 34.8324 4.62853C32.6935 4.27821 30.4988 4.64259 28.5879 5.66526C26.677 6.68794 25.1564 8.31191 24.2615 10.2859C23.3665 12.2598 23.1471 14.4737 23.6371 16.5849C19.7218 16.3885 15.8915 15.371 12.3949 13.5984C8.89831 11.8258 5.81353 9.33768 3.3408 6.29564C2.08146 8.46363 1.69574 11.0301 2.2622 13.4725C2.82865 15.9149 4.30468 18.0495 6.38976 19.4419C4.82246 19.396 3.2893 18.9731 1.92 18.2092V18.334C1.92062 20.6077 2.7077 22.8112 4.14774 24.5708C5.58778 26.3303 7.59212 27.5376 9.8208 27.9878C8.37096 28.3833 6.84975 28.4411 5.37408 28.1568C6.00363 30.1134 7.22886 31.8244 8.87848 33.0506C10.5281 34.2768 12.5197 34.9569 14.5747 34.9958C12.5329 36.6007 10.1946 37.7874 7.69375 38.4878C5.19287 39.1882 2.57843 39.3887 0 39.0777C4.50367 41.9678 9.74385 43.5007 15.095 43.4937" fill="#1DA1F2"/>
</g>
<defs>
<filter id="filter0_d_1201_2437" x="0" y="4.4989" width="50" height="41.0025" filterUnits="userSpaceOnUse" color-interpolation-filters="sRGB">
<feFlood flood-opacity="0" result="BackgroundImageFix"/>
<feColorMatrix in="SourceAlpha" type="matrix" values="0 0 0 0 0 0 0 0 0 0 0 0 0 0 0 0 0 0 127 0" result="hardAlpha"/>
<feOffset dx="2" dy="2"/>
<feComposite in2="hardAlpha" operator="out"/>
<feColorMatrix type="matrix" values="0 0 0 0 0.560784 0 0 0 0 0.85098 0 0 0 0 0.533333 0 0 0 1 0"/>
<feBlend mode="normal" in2="BackgroundImageFix" result="effect1_dropShadow_1201_2437"/>
<feBlend mode="normal" in="SourceGraphic" in2="effect1_dropShadow_1201_2437" result="shape"/>
</filter>
</defs>
</svg>
