<svg width="52" height="52" viewBox="0 0 52 52" fill="none" xmlns="http://www.w3.org/2000/svg">
<g filter="url(#filter0_d_1201_2451)">
<path d="M48 24C48 37.2541 37.2541 48 24 48C10.7459 48 0 37.2541 0 24C0 10.7459 10.7459 0 24 0C37.2569 0 48 10.7459 48 24Z" fill="#2081E2"/>
</g>
<path d="M11.8409 24.8064L11.9445 24.6437L18.1878 14.8767C18.279 14.7337 18.4936 14.7485 18.5626 14.9038C19.6057 17.2414 20.5057 20.1486 20.084 21.9584C19.904 22.7031 19.4109 23.7116 18.8561 24.6437C18.7845 24.7793 18.7057 24.9125 18.6218 25.0407C18.5823 25.0998 18.5158 25.1344 18.4443 25.1344H12.0234C11.8508 25.1344 11.7497 24.947 11.8409 24.8064Z" fill="white"/>
<path d="M39.6694 26.6213V28.1673C39.6694 28.256 39.6152 28.335 39.5363 28.3695C39.053 28.5766 37.3984 29.3361 36.7105 30.2928C34.9548 32.7363 33.6135 36.2304 30.6151 36.2304H18.1062C13.6727 36.2304 10.0801 32.6254 10.0801 28.1771V28.0341C10.0801 27.9158 10.1762 27.8196 10.2946 27.8196H17.2678C17.4059 27.8196 17.507 27.9478 17.4947 28.0834C17.4454 28.5372 17.5292 29.0007 17.7437 29.4224C18.158 30.2632 19.0161 30.7884 19.9432 30.7884H23.3953V28.0933H19.9826C19.8076 28.0933 19.704 27.8911 19.8051 27.7481C19.8421 27.6914 19.884 27.6322 19.9284 27.5656C20.2514 27.107 20.7125 26.3944 21.1712 25.5831C21.4843 25.0358 21.7876 24.4513 22.0317 23.8645C22.081 23.7585 22.1205 23.65 22.1599 23.5439C22.2265 23.3566 22.2955 23.1815 22.3449 23.0064C22.3942 22.8585 22.4336 22.7031 22.4731 22.5576C22.589 22.0596 22.6383 21.5319 22.6383 20.9845C22.6383 20.7699 22.6285 20.5456 22.6087 20.331C22.5989 20.0968 22.5692 19.8625 22.5396 19.6283C22.5199 19.4212 22.483 19.2165 22.4435 19.002C22.3942 18.6888 22.3251 18.3782 22.2462 18.065L22.2191 17.9466C22.1599 17.7321 22.1106 17.5274 22.0416 17.3129C21.8468 16.6398 21.6224 15.9839 21.3857 15.3699C21.2994 15.1258 21.2007 14.8915 21.1021 14.6573C20.9566 14.3047 20.8087 13.9841 20.6731 13.6808C20.604 13.5427 20.5448 13.417 20.4857 13.2888C20.4191 13.1433 20.35 12.9978 20.281 12.8597C20.2317 12.7537 20.175 12.6551 20.1355 12.5565L19.7139 11.7773C19.6547 11.6712 19.7534 11.5455 19.8692 11.5775L22.5076 12.2926H22.515C22.5199 12.2926 22.5224 12.2951 22.5249 12.2951L22.8726 12.3912L23.2547 12.4997L23.3953 12.5392V10.971C23.3953 10.2139 24.0019 9.59998 24.7515 9.59998C25.1263 9.59998 25.4665 9.75283 25.7106 10.0019C25.9547 10.251 26.1076 10.5912 26.1076 10.971V13.2986L26.3887 13.3775C26.411 13.3849 26.4331 13.3948 26.4529 13.4096C26.5219 13.4614 26.6205 13.5378 26.7463 13.6315C26.8449 13.7104 26.951 13.8066 27.0792 13.9052C27.3331 14.1099 27.6364 14.3737 27.9693 14.677C28.058 14.7535 28.1444 14.8323 28.2233 14.9113C28.6523 15.3107 29.1331 15.7792 29.5918 16.297C29.72 16.4425 29.8458 16.5904 29.974 16.7458C30.1022 16.9036 30.2378 17.059 30.3562 17.2143C30.5115 17.4214 30.6792 17.6359 30.8247 17.8603C30.8937 17.9664 30.9726 18.0749 31.0392 18.1809C31.2266 18.4645 31.3918 18.7579 31.5496 19.0513C31.6162 19.1869 31.6852 19.3349 31.7444 19.4803C31.9195 19.8724 32.0576 20.2719 32.1463 20.6713C32.1735 20.7576 32.1932 20.8513 32.2031 20.9352V20.9549C32.2326 21.0733 32.2425 21.199 32.2523 21.3272C32.2918 21.7365 32.2721 22.1458 32.1833 22.5576C32.1463 22.7327 32.097 22.8979 32.0378 23.073C31.9786 23.2407 31.9195 23.4157 31.8431 23.5809C31.6951 23.9237 31.52 24.2664 31.3129 24.587C31.2463 24.7053 31.1674 24.8311 31.0885 24.9494C31.0022 25.0752 30.9135 25.1936 30.8345 25.3095C30.726 25.4574 30.6102 25.6127 30.4918 25.7508C30.3858 25.8963 30.2772 26.0418 30.1589 26.17C29.9937 26.3648 29.8359 26.5497 29.6707 26.7273C29.5721 26.8432 29.466 26.9615 29.3575 27.0676C29.2515 27.1859 29.143 27.2919 29.0444 27.3905C28.8792 27.5558 28.7411 27.684 28.6252 27.79L28.3539 28.0391C28.3145 28.0736 28.2627 28.0933 28.2085 28.0933H26.1076V30.7884H28.751C29.3427 30.7884 29.9049 30.5788 30.3586 30.1942C30.514 30.0585 31.1921 29.4717 31.9935 28.5865C32.0206 28.5569 32.0551 28.5347 32.0945 28.5248L39.3957 26.4141C39.5313 26.3746 39.6694 26.4782 39.6694 26.6213Z" fill="white"/>
<defs>
<filter id="filter0_d_1201_2451" x="0" y="0" width="52" height="52" filterUnits="userSpaceOnUse" color-interpolation-filters="sRGB">
<feFlood flood-opacity="0" result="BackgroundImageFix"/>
<feColorMatrix in="SourceAlpha" type="matrix" values="0 0 0 0 0 0 0 0 0 0 0 0 0 0 0 0 0 0 127 0" result="hardAlpha"/>
<feOffset dx="4" dy="4"/>
<feComposite in2="hardAlpha" operator="out"/>
<feColorMatrix type="matrix" values="0 0 0 0 0.560784 0 0 0 0 0.85098 0 0 0 0 0.533333 0 0 0 1 0"/>
<feBlend mode="normal" in2="BackgroundImageFix" result="effect1_dropShadow_1201_2451"/>
<feBlend mode="normal" in="SourceGraphic" in2="effect1_dropShadow_1201_2451" result="shape"/>
</filter>
</defs>
</svg>
